<?xml version="1.0" standalone="no"?>
<!DOCTYPE svg PUBLIC "-//W3C//DTD SVG 1.1//EN" "http://www.w3.org/Graphics/SVG/1.1/DTD/svg11.dtd" >
<svg xmlns="http://www.w3.org/2000/svg">
<metadata></metadata>
<defs>
<font id="frutiger_45_lightnormal" horiz-adv-x="1138" >
<font-face units-per-em="2048" ascent="1638" descent="-410" />
<missing-glyph horiz-adv-x="569" />
<glyph horiz-adv-x="2048" />
<glyph horiz-adv-x="2048" />
<glyph unicode="&#xd;" horiz-adv-x="569" />
<glyph unicode=" "  horiz-adv-x="569" />
<glyph unicode="&#x09;" horiz-adv-x="569" />
<glyph unicode="&#xa0;" horiz-adv-x="569" />
<glyph unicode="!" horiz-adv-x="796" d="M315 0v172h166v-172h-166zM315 1430h166l-24 -1084h-117z" />
<glyph unicode="&#x22;" d="M367 983v447h129v-447h-129zM643 983v447h129v-447h-129z" />
<glyph unicode="#" d="M70 449v110h227l45 311h-219v111h233l64 449h125l-64 -449h267l63 449h125l-64 -449h197v-111h-211l-43 -311h197v-110h-213l-64 -449h-125l64 449h-266l-64 -449h-125l64 449h-213zM424 559h266l43 311h-266z" />
<glyph unicode="$" d="M174 1081q0 143 98.5 241.5t253.5 123.5v133h105v-125q72 0 138.5 -10t137.5 -37l-22 -129q-94 53 -254 53v-543q164 -88 233 -157q106 -106 107 -252q0 -164 -103 -268q-88 -90 -237 -123v-170h-105v159l-24 -2q-98 0 -178 16.5t-146 45.5l15 145q63 -41 142 -62.5 t173 -21.5l18 2v588q-172 94 -239 156q-113 104 -113 237zM315 1085q0 -74 60 -135q45 -45 151 -104v475q-92 -18 -147 -72q-63 -61 -64 -164zM631 117q94 27 146 94.5t52 179.5q0 70 -57 131q-45 50 -141 107v-512z" />
<glyph unicode="%" horiz-adv-x="2048" d="M215 1061q0 174 79 278.5t245 104.5q162 0 245 -109q78 -100 78 -274t-76 -275q-82 -109 -247 -108q-162 0 -243 104.5t-81 278.5zM344 1061q0 -115 39 -184q49 -88 156 -89q104 0 153 89q41 74 41 184q0 115 -39 184q-49 88 -155 88q-104 0 -154 -88q-41 -73 -41 -184z M541 -45l845 1520h119l-846 -1520h-118zM1186 369q0 174 78.5 278.5t244.5 104.5q162 0 246 -109q78 -100 78 -274t-76 -275q-82 -109 -248 -108q-162 0 -242.5 104.5t-80.5 278.5zM1315 369q0 -115 39 -185q49 -88 155 -88q104 0 154 88q41 74 41 185q0 115 -39 184 q-49 88 -156 88q-104 0 -153 -88q-41 -73 -41 -184z" />
<glyph unicode="&#x26;" horiz-adv-x="1366" d="M102 375q0 156 97 262q84 92 241 154q-94 106 -127 159q-59 94 -59 193q0 145 115.5 228t269.5 83q139 0 231 -72q104 -80 105 -223q0 -176 -160 -287q-53 -36 -184 -102l377 -420q63 90 92.5 203t29.5 231h123q0 -143 -39.5 -276t-119.5 -240l243 -264h-180l-151 160 q-86 -96 -195 -142.5t-240 -46.5q-201 0 -325 95q-143 106 -144 305zM244 381q0 -141 100 -221q92 -74 231 -74q96 0 194 46t159 120l-416 459q-113 -45 -184 -125q-84 -94 -84 -205zM395 1135q0 -90 76 -191q23 -31 86 -100q137 66 184 104q92 78 93 189q0 100 -55.5 153 t-147.5 53q-98 0 -167 -54t-69 -154z" />
<glyph unicode="'" horiz-adv-x="569" d="M221 983v447h129v-447h-129z" />
<glyph unicode="(" horiz-adv-x="569" d="M86 631q0 160 51 327q43 141 129 304q61 115 170 286h86q-98 -190 -145 -291q-78 -168 -115 -303q-47 -170 -47 -323q0 -160 45 -322q37 -135 115 -303q38 -84 147 -293h-86q-115 180 -170 285q-86 160 -129 303q-51 168 -51 330z" />
<glyph unicode=")" horiz-adv-x="569" d="M47 -287q98 190 146 291q78 168 114 303q47 170 47 324q0 160 -45 321q-37 135 -114 303q-39 84 -148 293h86q115 -180 170 -284q86 -160 129 -303q51 -168 51 -330q0 -160 -51 -328q-43 -141 -129 -303q-61 -115 -170 -287h-86z" />
<glyph unicode="*" d="M188 1112l35 119l301 -115l-14 314h119l-15 -314l297 115l39 -119l-301 -86l199 -244l-103 -77l-176 268l-172 -268l-100 77l192 244z" />
<glyph unicode="+" horiz-adv-x="1228" d="M94 449v141h449v448h141v-448h449v-141h-449v-449h-141v449h-449z" />
<glyph unicode="," horiz-adv-x="569" d="M111 -274l118 446h172l-161 -446h-129z" />
<glyph unicode="-" horiz-adv-x="681" d="M84 481v142h514v-142h-514z" />
<glyph unicode="." horiz-adv-x="569" d="M201 0v172h166v-172h-166z" />
<glyph unicode="/" horiz-adv-x="569" d="M-63 -25l555 1479h141l-555 -1479h-141z" />
<glyph unicode="0" d="M100 715q0 307 90 489q119 240 379 240q258 0 377 -240q92 -186 92 -489q0 -393 -139 -576q-119 -154 -330 -153q-211 0 -327 151q-141 182 -142 578zM242 715q0 -252 51 -391q80 -215 276 -215q197 0 275 213q53 145 53 393q0 252 -51 391q-80 215 -277 215t-274 -213 q-53 -145 -53 -393z" />
<glyph unicode="1" d="M252 1159l323 271h127v-1430h-141v1270l-231 -203z" />
<glyph unicode="2" d="M102 0v123l328 362q154 172 236 295q109 166 108 283q0 115 -71.5 186.5t-180.5 71.5q-92 0 -173 -25.5t-171 -76.5l-24 129q88 43 181 69.5t179 26.5q182 0 293 -90q121 -98 121 -285q0 -109 -76 -248q-90 -164 -317 -415l-259 -283h685v-123h-859z" />
<glyph unicode="3" d="M102 43l17 135q80 -39 168 -54t176 -15q150 0 248 67q119 82 118 234q0 164 -137 227q-92 43 -254 43h-131v123h37q207 0 315 43q170 68 170 244q0 113 -106 176q-92 55 -221 55q-80 0 -161 -19.5t-159 -56.5l-12 133q80 29 171 47.5t175 18.5q193 0 315 -82 q139 -94 140 -272q0 -129 -81 -219.5t-216 -122.5q137 -2 217 -102.5t80 -248.5q0 -190 -146.5 -300.5t-369.5 -110.5q-98 0 -183.5 13t-169.5 44z" />
<glyph unicode="4" d="M47 330v139l643 961h180v-977h211v-123h-211v-330h-141v330h-682zM176 453h553v835z" />
<glyph unicode="5" d="M176 37v145q68 -37 147.5 -55t157.5 -18q156 0 260 77q119 88 119 246q0 324 -358 324q-156 0 -309 -45l14 719h731v-123h-592l-10 -459q35 12 90 21.5t127 9.5q207 0 327.5 -111t120.5 -307q0 -231 -145 -357q-137 -119 -375 -118q-90 0 -159.5 11t-145.5 40z" />
<glyph unicode="6" d="M113 664q0 354 141 553q162 227 504 227q76 0 143 -12q6 -2 86 -21l-12 -135q-100 45 -236 45q-256 0 -381 -186q-104 -156 -104 -408q55 86 146.5 131t193.5 45q176 0 293 -90q152 -117 151 -356q0 -213 -125 -342t-342 -129q-258 0 -370 213q-88 166 -88 465zM268 463 q0 -145 74 -244q84 -111 233 -110q154 0 238 94t84 243q0 160 -76.5 247t-226.5 87q-152 0 -239 -87t-87 -230z" />
<glyph unicode="7" d="M119 1307v123h872v-123l-553 -1307h-155l569 1307h-733z" />
<glyph unicode="8" d="M94 367q0 154 94 245q74 72 236 131q-129 61 -197 138q-88 98 -88 229q0 162 150 256q125 78 280 78q184 0 297 -78q131 -90 131 -256q0 -121 -94 -221q-70 -76 -198 -146q172 -61 243 -129q96 -90 96 -247q0 -195 -151 -295q-129 -86 -324 -86q-190 0 -323 92 q-152 104 -152 289zM236 367q0 -115 101 -186.5t232 -71.5q139 0 230 61q104 72 104 209q0 92 -69 160q-33 33 -265 151q-174 -72 -229 -112q-104 -80 -104 -211zM281 1098q0 -129 145 -226q43 -29 143 -77q131 63 193 118q94 84 94 185q0 106 -87 164.5t-200 58.5 q-121 0 -204.5 -58.5t-83.5 -164.5z" />
<glyph unicode="9" d="M100 973q0 213 125 342t342 129q258 0 371 -213q88 -166 88 -465q0 -354 -141 -553q-162 -227 -504 -227q-76 0 -143 12q-6 2 -86 20l12 136q100 -45 235 -45q256 0 381 186q104 156 105 407q-55 -86 -146.5 -131t-193.5 -45q-176 0 -293 90q-152 117 -152 357zM242 983 q0 -160 76.5 -247t226.5 -87q152 0 238.5 87t86.5 231q0 145 -73 243q-84 111 -234 111q-154 0 -237.5 -94t-83.5 -244z" />
<glyph unicode=":" horiz-adv-x="569" d="M201 0v172h166v-172h-166zM201 872v172h166v-172h-166z" />
<glyph unicode=";" horiz-adv-x="569" d="M111 -274l118 446h172l-161 -446h-129zM201 872v172h166v-172h-166z" />
<glyph unicode="&#x3c;" horiz-adv-x="1228" d="M94 455v127l1039 471v-135l-881 -400l881 -399v-135z" />
<glyph unicode="=" horiz-adv-x="1228" d="M94 242v141h1039v-141h-1039zM94 653v142h1039v-142h-1039z" />
<glyph unicode="&#x3e;" horiz-adv-x="1228" d="M96 -16v135l883 399l-883 400v135l1039 -471v-127z" />
<glyph unicode="?" horiz-adv-x="1024" d="M176 1403q86 25 155.5 38t143.5 13q170 0 277 -88q117 -96 116 -279q0 -141 -90 -260q-84 -98 -168 -194q-92 -121 -92 -256v-31h-129v27q0 158 86 278q82 94 164 189q88 115 88 247q0 111 -72.5 177.5t-185.5 66.5q-80 0 -152 -16q-31 -6 -135 -41zM373 0v172h166v-172 h-166z" />
<glyph unicode="@" horiz-adv-x="1638" d="M82 715q0 301 184 508q205 231 555 231q291 0 498 -158q229 -174 229 -460q0 -242 -166 -412q-145 -150 -297 -150q-137 0 -161 125q-55 -59 -97 -84q-68 -41 -159 -41q-119 0 -198 89.5t-79 218.5q0 213 129 376q139 178 344 179q76 0 133.5 -38t92.5 -120l43 123h129 l-175 -557q-20 -57 -20 -101q0 -20 11.5 -33.5t33.5 -13.5q119 0 210 130t91 309q0 227 -180 366q-168 129 -412 129q-258 0 -431 -175t-173 -439q0 -268 171 -443.5t433 -175.5q170 0 311.5 60.5t229.5 167.5h125q-96 -166 -270.5 -258.5t-395.5 -92.5q-346 0 -553 232 q-186 209 -186 508zM545 594q0 -92 40 -144.5t107 -52.5q137 0 242 152q94 137 94 280q0 98 -53 146q-43 39 -111 39q-109 0 -209 -117q-110 -129 -110 -303z" />
<glyph unicode="A" horiz-adv-x="1366" d="M27 0l585 1430h160l567 -1430h-147l-154 383h-721l-153 -383h-137zM371 506h620l-309 788z" />
<glyph unicode="B" d="M164 0v1430h340q201 0 313 -72q139 -88 139 -281q0 -274 -260 -325q139 -29 221 -117t82 -227q0 -217 -163 -320q-141 -88 -387 -88h-285zM305 123h148q174 0 274 53q131 70 131 225q0 172 -135 236q-94 45 -293 45h-125v-559zM309 805h158q143 0 229 47q119 66 119 219 q0 137 -110 195q-78 41 -201 41h-195v-502z" />
<glyph unicode="C" horiz-adv-x="1366" d="M117 715q0 330 196.5 534.5t524.5 204.5q90 0 181 -12t146 -41l-8 -131q-57 31 -148 46t-171 15q-272 0 -426 -171t-154 -445q0 -276 148 -443q156 -174 432 -174q86 0 175 14.5t144 47.5l8 -123q-49 -31 -149.5 -46.5t-177.5 -15.5q-334 0 -527.5 202t-193.5 538z" />
<glyph unicode="D" horiz-adv-x="1366" d="M164 0v1430h354q369 0 549 -199q166 -182 166 -514q0 -371 -232 -553q-209 -164 -587 -164h-250zM305 123h117q322 0 487 135q182 150 183 467q0 307 -170 455q-147 127 -410 127h-207v-1184z" />
<glyph unicode="E" horiz-adv-x="1024" d="M176 0v1430h701v-123h-560v-510h531v-123h-531v-551h584v-123h-725z" />
<glyph unicode="F" horiz-adv-x="909" d="M158 0v1430h680v-123h-539v-510h514v-123h-514v-674h-141z" />
<glyph unicode="G" horiz-adv-x="1478" d="M131 715q0 330 196.5 534.5t524.5 204.5q100 0 206.5 -16.5t176.5 -51.5l-16 -131q-78 43 -168 59.5t-199 16.5q-272 0 -426 -171t-154 -445q0 -276 148 -443q156 -174 432 -174q80 0 169 11.5t134 40.5v501h-332v123h473v-711q-106 -47 -214.5 -67.5t-229.5 -20.5 q-334 0 -527.5 202t-193.5 538z" />
<glyph unicode="H" horiz-adv-x="1366" d="M180 0v1430h142v-633h722v633h142v-1430h-142v674h-722v-674h-142z" />
<glyph unicode="I" horiz-adv-x="454" d="M158 0v1430h141v-1430h-141z" />
<glyph unicode="J" horiz-adv-x="681" d="M29 0v125q27 -14 61.5 -20.5t71.5 -6.5q111 0 164 80q45 68 45 187v1065h141v-1061q0 -176 -78 -279q-88 -115 -258 -115q-82 0 -147 25z" />
<glyph unicode="K" horiz-adv-x="1251" d="M195 0v1430h141v-642l643 642h184l-692 -674l752 -756h-195l-692 715v-715h-141z" />
<glyph unicode="L" horiz-adv-x="909" d="M164 0v1430h141v-1307h574v-123h-715z" />
<glyph unicode="M" horiz-adv-x="1820" d="M176 0v1430h219l523 -1258l524 1258h203v-1430h-142v1288l-524 -1288h-121l-536 1288l-5 -1288h-141z" />
<glyph unicode="N" horiz-adv-x="1366" d="M158 0v1430h178l727 -1258l4 1258h141v-1430h-190l-715 1233l-4 -1233h-141z" />
<glyph unicode="O" horiz-adv-x="1478" d="M111 715q0 313 151 514q170 225 477 225q305 0 475 -223q154 -203 154 -516q0 -338 -160 -535q-166 -205 -469 -205t-465.5 201t-162.5 539zM252 715q0 -252 117 -422q133 -195 370 -195q236 0 369 195q119 172 119 422q0 252 -117 422q-133 194 -371 194 q-236 0 -368 -194q-119 -172 -119 -422z" />
<glyph unicode="P" horiz-adv-x="1024" d="M176 0v1430h352q207 0 325 -103.5t118 -302.5q0 -195 -131 -303q-123 -102 -326 -103h-197v-618h-141zM317 741h99q254 0 340 78q73 65 73 201q0 139 -73.5 213t-208.5 74h-230v-566z" />
<glyph unicode="Q" horiz-adv-x="1478" d="M111 715q0 313 151 514q170 225 477 225q305 0 475 -223q154 -203 154 -516q0 -256 -95 -436.5t-276 -253.5l301 -291h-188l-254 252q-25 -6 -52.5 -8.5t-64.5 -2.5q-303 0 -465.5 201t-162.5 539zM252 715q0 -252 117 -422q133 -195 370 -195q236 0 369 195 q119 172 119 422q0 252 -117 422q-133 194 -371 194q-236 0 -368 -194q-119 -172 -119 -422z" />
<glyph unicode="R" d="M180 0v1430h369q199 0 305 -87q115 -94 115 -284q0 -135 -90.5 -223t-227.5 -107q61 -10 97 -37.5t88 -138.5l243 -553h-155l-207 483q-57 127 -119 164q-45 27 -160 27h-116v-674h-142zM322 797h149q145 0 240 55q117 70 116 207q0 158 -106 211q-74 37 -254 37h-145 v-510z" />
<glyph unicode="S" horiz-adv-x="1024" d="M119 1081q0 168 129 270.5t323 102.5q90 0 156 -12t125 -35l-23 -129q-43 25 -114.5 39t-145.5 14q-127 0 -209 -53q-100 -66 -100 -193q0 -115 170 -217q158 -92 315 -184q170 -127 170 -305q0 -199 -151 -309q-129 -94 -318 -95q-98 0 -177.5 16.5t-145.5 45.5l14 145 q63 -41 142 -62.5t174 -21.5q141 0 227 70q94 78 94 223q0 113 -170 219q-158 92 -315 187q-170 125 -170 284z" />
<glyph unicode="T" horiz-adv-x="1024" d="M20 1307v123h986v-123h-422v-1307h-142v1307h-422z" />
<glyph unicode="U" horiz-adv-x="1366" d="M166 500v930h141v-930q0 -182 97.5 -292t279.5 -110q180 0 278.5 110.5t98.5 291.5v930h141v-930q0 -283 -180 -420q-137 -104 -338 -105q-201 0 -336 103q-182 137 -182 422z" />
<glyph unicode="V" horiz-adv-x="1251" d="M12 1430h150l461 -1289l477 1289h139l-543 -1430h-151z" />
<glyph unicode="W" horiz-adv-x="1933" d="M18 1430h146l352 -1270l371 1270h170l360 -1270l363 1270h135l-414 -1430h-168l-362 1270l-373 -1270h-170z" />
<glyph unicode="X" horiz-adv-x="1251" d="M14 0l533 752l-479 678h165l402 -578l405 578h158l-481 -678l520 -752h-172l-436 651l-453 -651h-162z" />
<glyph unicode="Y" horiz-adv-x="1251" d="M25 1430h163l437 -699l448 699h154l-531 -824v-606h-141v606z" />
<glyph unicode="Z" horiz-adv-x="1024" d="M43 0v123l745 1184h-727v123h877v-123l-741 -1184h766v-123h-920z" />
<glyph unicode="[" horiz-adv-x="569" d="M141 -287v1835h332v-98h-203v-1638h203v-99h-332z" />
<glyph unicode="\" horiz-adv-x="569" d="M-63 1454h141l555 -1479h-141z" />
<glyph unicode="]" horiz-adv-x="569" d="M96 -188h203v1638h-203v98h332v-1835h-332v99z" />
<glyph unicode="^" horiz-adv-x="1228" d="M102 543l447 887h131l446 -887h-145l-367 745l-366 -745h-146z" />
<glyph unicode="_" horiz-adv-x="1024" d="M0 -154h1024v-102h-1024v102z" />
<glyph unicode="`" horiz-adv-x="454" d="M-8 1466h162l190 -295h-94z" />
<glyph unicode="a" horiz-adv-x="1024" d="M82 270q0 231 219 314q141 53 424 53h25v53q0 137 -55.5 202.5t-182.5 65.5q-172 0 -307 -86v125q63 31 148 51.5t159 20.5q195 0 281 -92t86 -297v-461q0 -57 1 -106.5t9 -112.5h-127v168q-45 -90 -138.5 -141.5t-197.5 -51.5q-195 0 -283 111q-61 78 -61 184zM223 274 q0 -96 64 -145q55 -43 153 -43q152 0 231 90t79 287v63h-37q-285 0 -394 -69q-96 -61 -96 -183z" />
<glyph unicode="b" d="M150 0v1536h129v-668q29 63 96 119q100 82 233 82q219 0 330 -154q100 -141 100 -393q0 -244 -106 -389q-115 -158 -324 -158q-225 0 -325 191l-4 -166h-129zM346 233q84 -147 242 -147q166 0 246 141q63 113 63 295q0 184 -61 295q-78 141 -248 141q-160 0 -242 -145 q-67 -119 -67 -286q0 -175 67 -294z" />
<glyph unicode="c" horiz-adv-x="909" d="M84 522q0 242 142.5 394.5t373.5 152.5q88 0 160 -14q31 -7 92 -27l-10 -123q-59 27 -113.5 40t-110.5 13q-184 0 -288.5 -120.5t-104.5 -315.5q0 -184 103.5 -310t275.5 -126q109 0 236 47l12 -121q-55 -20 -125 -28.5t-143 -8.5q-240 0 -375 164q-125 152 -125 383z " />
<glyph unicode="d" d="M100 522q0 254 99 393q109 154 331 154q133 0 232 -80q72 -59 94 -121l4 668h129v-1536h-129v166q-55 -100 -134 -145.5t-196 -45.5q-207 0 -318.5 153t-111.5 394zM242 522q0 -184 61 -295q78 -141 248 -141q156 0 240 145q69 119 69 286q0 175 -67 294 q-84 147 -242 147q-166 0 -246 -141q-63 -113 -63 -295z" />
<glyph unicode="e" horiz-adv-x="1024" d="M84 522q0 242 122 394.5t318 152.5q209 0 318 -154q98 -137 98 -364v-66h-715q0 -174 89 -286.5t255 -112.5q68 0 158 24.5t135 53.5v-131q-68 -27 -146.5 -42.5t-156.5 -15.5q-246 0 -366 156q-109 141 -109 391zM225 596h574q0 154 -60 250q-69 112 -205 112h-2 q-135 0 -225 -116q-82 -107 -82 -246z" />
<glyph unicode="f" horiz-adv-x="681" d="M39 934v110h211v76q0 217 37 303q59 137 239 138q37 0 70 -4.5t51 -16.5l-8 -113q-41 23 -102 23q-100 0 -136 -84q-22 -53 -22 -164v-10v-57v-91h235v-110h-235v-934h-129v934h-211z" />
<glyph unicode="g" d="M100 522q0 254 99 393q109 154 331 154q115 0 186.5 -27.5t139.5 -115.5l4 118h129v-958q0 -238 -108 -373q-124 -155 -378 -155h-3q-90 0 -189 20q-43 8 -127 35l11 129q59 -31 144 -52.5t163 -21.5q225 0 305 158q55 111 55 379q-53 -111 -133 -158t-188 -47 q-227 0 -344 174q-96 143 -97 348zM242 522q0 -172 67 -282q80 -129 234 -129q162 0 245 133q72 113 72 278q0 207 -65 314q-75 122 -241 122h-3q-166 0 -246 -141q-63 -113 -63 -295z" />
<glyph unicode="h" d="M162 0v1536h129v-668q47 90 132 145.5t198 55.5q197 0 282 -125q74 -109 74 -319v-625h-129v623q0 160 -43 235q-57 100 -205 100q-158 0 -240 -131q-70 -111 -69 -268v-559h-129z" />
<glyph unicode="i" horiz-adv-x="454" d="M162 0v1044h129v-1044h-129zM162 1323v172h129v-172h-129z" />
<glyph unicode="j" horiz-adv-x="454" d="M-57 -319q37 -12 77 -13q72 0 103 33q39 41 39 168v1175h129v-1191q0 -139 -47 -211q-55 -84 -189 -84q-51 0 -76.5 4t-35.5 6v113zM162 1323v172h129v-172h-129z" />
<glyph unicode="k" horiz-adv-x="1024" d="M162 0v1536h129v-920l467 428h166l-510 -462l571 -582h-178l-516 537v-537h-129z" />
<glyph unicode="l" horiz-adv-x="454" d="M162 0v1536h129v-1536h-129z" />
<glyph unicode="m" horiz-adv-x="1705" d="M154 1044h125v-176q61 96 96 125q90 76 233 76q92 0 160 -41q94 -57 117 -180q39 94 130 157.5t208 63.5q154 0 241.5 -96t87.5 -254v-719h-129v694q0 121 -47 187q-54 77 -171 77h-3q-115 0 -192 -92q-88 -104 -88 -288v-578h-129v694q0 121 -48 187q-54 77 -171 77h-3 q-115 0 -192 -92q-88 -104 -88 -288v-578h-129v799v59v23q0 90 -8 163z" />
<glyph unicode="n" d="M154 1044h125v-186q47 94 106 141q88 70 236 70q182 0 274 -115q82 -102 82 -286v-668h-129v635q0 158 -55 235q-61 88 -193 88q-160 0 -242 -124q-68 -104 -67 -256v-578h-129v799v59v23q0 90 -8 163z" />
<glyph unicode="o" d="M82 522q0 231 117 381q131 166 370 166q240 0 371 -166q117 -147 117 -381q0 -231 -117 -381q-131 -166 -371 -166t-370 166q-117 148 -117 381zM223 522q0 -190 91.5 -313t254.5 -123q164 0 258 127q88 119 88 309t-88 309q-94 127 -258 127t-255 -123t-91 -313z" />
<glyph unicode="p" d="M150 -430v1474h129l-9 -190q63 96 99 129q96 86 239 86q219 0 330 -154q100 -141 100 -393q0 -244 -106 -389q-115 -158 -324 -158q-229 0 -325 203l-4 -608h-129zM346 233q84 -147 242 -147q166 0 246 141q63 113 63 295q0 184 -61 295q-78 141 -248 141 q-156 0 -240 -145q-69 -119 -69 -286q0 -175 67 -294z" />
<glyph unicode="q" d="M100 522q0 254 99 393q109 154 331 154q141 0 236 -82q35 -31 90 -113l4 170h129v-1474h-129v608q-51 -104 -129 -153.5t-201 -49.5q-207 0 -318.5 153t-111.5 394zM242 522q0 -184 61 -295q78 -141 248 -141q156 0 240 145q69 119 69 286q0 175 -67 294 q-84 147 -242 147q-166 0 -246 -141q-63 -113 -63 -295z" />
<glyph unicode="r" horiz-adv-x="681" d="M154 1044h129v-200q43 98 104 155q74 70 168 70q20 0 48 -4t42 -8v-135q-41 12 -94 12q-139 0 -207 -137q-53 -109 -53 -281v-516h-129v811v74v22q0 70 -8 137z" />
<glyph unicode="s" horiz-adv-x="796" d="M70 25l12 127q61 -31 130 -48.5t142 -17.5q98 0 165 49t67 137q0 100 -129 174q-121 61 -242 125q-131 86 -131 213q0 145 104 220q91 65 232 65h4q49 0 120.5 -11t137.5 -36l-12 -113q-53 25 -111.5 37t-120.5 12q-106 0 -165.5 -39.5t-59.5 -134.5q0 -76 133 -143 q233 -117 248 -127q133 -96 133 -242q0 -152 -123 -231q-100 -66 -242 -66q-82 0 -152 11.5t-140 38.5z" />
<glyph unicode="t" horiz-adv-x="681" d="M41 934v110h205v252l129 45v-297h237v-110h-237v-676q0 -80 31.5 -126t107.5 -46q37 0 60.5 5t58.5 20l8 -107q-25 -10 -70 -19.5t-88 -9.5q-156 0 -204 103q-33 68 -33 246v610h-205z" />
<glyph unicode="u" d="M162 377v667h129v-634q0 -158 58.5 -241t189.5 -83q160 0 241 125q68 104 68 256v577h129v-798q0 -61 1 -118.5t7 -127.5h-125v186q-47 -94 -106 -141q-88 -70 -236 -70q-182 0 -274 115q-82 102 -82 287z" />
<glyph unicode="v" horiz-adv-x="909" d="M18 1044h142l289 -903l307 903h135l-367 -1044h-151z" />
<glyph unicode="w" horiz-adv-x="1593" d="M14 1044h142l274 -903l295 903h156l276 -903l293 903h129l-344 -1044h-156l-284 903l-289 -903h-156z" />
<glyph unicode="x" horiz-adv-x="909" d="M16 0l367 553l-332 491h160l248 -389l252 389h147l-323 -491l358 -553h-160l-274 451l-293 -451h-150z" />
<glyph unicode="y" horiz-adv-x="909" d="M18 1044h142l293 -870l303 870h135l-418 -1200q-45 -133 -96 -196q-72 -90 -172 -90q-70 0 -139 16l12 111q18 -6 43.5 -11.5t52.5 -5.5q78 0 121 62q31 43 67 166l27 92z" />
<glyph unicode="z" horiz-adv-x="909" d="M66 0v109l628 825h-604v110h754v-110l-629 -823h629v-111h-778z" />
<glyph unicode="{" horiz-adv-x="569" d="M78 582v98q80 0 120 77t40 199v344q0 115 58 181.5t150 66.5h113v-98h-102q-47 0 -68.5 -54.5t-21.5 -135.5v-338q0 -129 -68 -213q-49 -61 -104 -76q55 -18 102 -78q70 -86 70 -219v-332q0 -82 22.5 -137t67.5 -55h102v-99h-115q-88 0 -147 67.5t-59 182.5v348 q0 121 -37 191q-43 80 -123 80z" />
<glyph unicode="|" horiz-adv-x="454" d="M158 -512v2048h141v-2048h-141z" />
<glyph unicode="}" horiz-adv-x="569" d="M10 -188h103q47 0 68.5 54t21.5 136v338q0 129 67 213q49 61 105 76q-55 18 -103 78q-70 86 -69 219v331q0 82 -22.5 137.5t-67.5 55.5h-103v98h115q88 0 147.5 -67.5t59.5 -182.5v-348q0 -121 40 -195.5t120 -74.5v-98q-80 0 -120 -77t-40 -200v-344 q0 -115 -58.5 -181.5t-150.5 -66.5h-113v99z" />
<glyph unicode="~" horiz-adv-x="1228" d="M141 477q43 82 92 125q70 61 164 62q51 0 117 -23q41 -14 117 -51q59 -31 84 -41q76 -35 119 -35q53 0 102 47q33 31 78 103l73 -105q-43 -82 -92 -125q-70 -61 -164 -61q-45 0 -83.5 11t-149.5 65q-92 43 -111 51q-55 23 -92 22q-53 0 -102 -47q-33 -31 -78 -102z" />
<glyph unicode="&#xa1;" horiz-adv-x="796" d="M315 -385l25 1083h117l24 -1083h-166zM315 872v172h166v-172h-166z" />
<glyph unicode="&#xa2;" d="M203 522q0 242 142 394.5t374 152.5q47 0 69 -4l46 139h96l-51 -151q20 -4 43 -9q25 -8 49 -16l-10 -123q-49 23 -117 39l-275 -823q74 -35 154 -35q109 0 235 47l13 -121q-55 -20 -125 -28.5t-144 -8.5q-98 0 -172 29l-63 -190h-96l75 225q-117 66 -180 196t-63 287z M344 522q0 -229 145 -352l263 786l-15 2q-184 0 -288.5 -120.5t-104.5 -315.5z" />
<glyph unicode="&#xa3;" d="M137 0v123h211v588h-186v110h186v101q0 229 88 358q111 164 361 164q74 0 136 -13.5t93 -29.5l-20 -127q-33 20 -83.5 33.5t-125.5 13.5q-184 0 -256 -135q-51 -96 -52 -277v-88h340v-110h-340v-588h504v-123h-856z" />
<glyph unicode="&#xa4;" d="M55 289l117 112q-111 139 -111 314q0 88 27 167t84 142l-117 113l88 92l117 -115q61 51 144 80t165 29q178 0 312 -109l110 115l92 -92l-110 -113q51 -59 77.5 -142t26.5 -167q0 -90 -25.5 -169t-78.5 -145l110 -112l-92 -88l-110 114q-61 -55 -139 -81.5t-173 -26.5 q-86 0 -166.5 26.5t-142.5 81.5l-117 -114zM203 715q0 -166 105 -275.5t261 -109.5q160 0 263.5 113.5t103.5 271.5q0 156 -104.5 270.5t-262.5 114.5q-154 0 -260 -115t-106 -270z" />
<glyph unicode="&#xa5;" d="M39 1430h156l374 -691l385 691h146l-398 -709h234v-98h-289l-6 -13v-153h295v-99h-295v-358h-141v358h-295v99h295v153l-6 13h-289v98h233z" />
<glyph unicode="&#xa6;" horiz-adv-x="454" d="M158 358h141v-716h-141v716zM158 666v716h141v-716h-141z" />
<glyph unicode="&#xa7;" d="M182 635q0 74 51 147q37 51 111 117l18 16l-14 9q-72 41 -108 90q-45 57 -45 133q0 154 124 237q102 70 246 70q86 0 160 -12.5t137 -32.5l-14 -119q-35 18 -108.5 35.5t-135.5 17.5q-94 0 -172 -38q-96 -49 -96 -136q0 -109 158 -186q147 -68 297 -135q160 -94 159 -244 q0 -84 -47 -155q-27 -41 -106 -123q70 -39 110 -95q49 -66 49 -147q0 -172 -157 -262q-119 -68 -258 -68q-180 0 -346 58l14 120q76 -35 161 -51t171 -16q104 0 182 51q92 61 92 164q0 100 -164 174q-152 63 -303 129q-166 96 -166 252zM324 643q0 -53 33.5 -94t99.5 -70 l239 -104l43 43q37 37 57.5 75.5t20.5 86.5q0 78 -51 127q-37 34 -125 75l-178 84l-14 -8q-39 -23 -76 -76q-49 -72 -49 -139z" />
<glyph unicode="&#xa8;" horiz-adv-x="454" d="M-25 1237v172h154v-172h-154zM326 1237v172h153v-172h-153z" />
<glyph unicode="&#xa9;" horiz-adv-x="1638" d="M80 715q0 305 217 522t522 217t522.5 -217t217.5 -522t-217.5 -522.5t-522.5 -217.5t-522 217.5t-217 522.5zM221 715q0 -266 171 -447.5t429 -181.5q256 0 426 180t170 449q0 266 -171 447t-425 181q-258 0 -429 -181t-171 -447zM403 715q0 205 117 334t320 129 q145 0 246.5 -80t121.5 -230h-123q-18 90 -82.5 144.5t-160.5 54.5q-141 0 -219 -96.5t-78 -253.5q0 -150 82 -251t219 -101q94 0 158.5 57t80.5 151h125q-31 -147 -129 -233t-235 -86q-197 0 -320 131t-123 330z" />
<glyph unicode="&#xaa;" horiz-adv-x="665" d="M49 981q0 143 144 195q92 33 278 32h16v31q0 53 -20 82q-35 47 -125 47q-59 0 -104 -10t-97 -39v94q43 16 99.5 28.5t113.5 12.5q123 0 180.5 -59.5t57.5 -173.5v-277v-64.5t6 -68.5h-102v98q-27 -53 -84.5 -83.5t-126.5 -30.5q-123 0 -179.5 49t-56.5 137zM154 991 q0 -55 39.5 -82.5t101.5 -27.5q127 0 170 80q22 42 22 124v37h-24q-127 0 -205 -24q-104 -33 -104 -107z" />
<glyph unicode="&#xab;" d="M186 551l287 420h121l-272 -420l272 -420h-121zM545 551l286 420h121l-272 -420l272 -420h-121z" />
<glyph unicode="&#xac;" horiz-adv-x="1228" d="M94 653v142h1039v-562h-142v420h-897z" />
<glyph unicode="&#xad;" horiz-adv-x="1228" d="M94 449v141h1039v-141h-1039z" />
<glyph unicode="&#xae;" horiz-adv-x="1638" d="M80 715q0 305 217 522t522 217t522.5 -217t217.5 -522t-217.5 -522.5t-522.5 -217.5t-522 217.5t-217 522.5zM221 715q0 -266 171 -447.5t429 -181.5q256 0 426 180t170 449q0 266 -171 447t-425 181q-258 0 -429 -181t-171 -447zM537 283v866h331q297 0 297 -244 q0 -106 -60.5 -172.5t-162.5 -66.5l246 -383h-150l-241 383h-119v-383h-141zM678 776h168q90 0 129 25q49 31 49 110q0 68 -50 97.5t-128 29.5h-168v-262z" />
<glyph unicode="&#xaf;" horiz-adv-x="454" d="M-23 1257v111h500v-111h-500z" />
<glyph unicode="&#xb0;" horiz-adv-x="819" d="M86 1139q0 131 95.5 218t228.5 87q135 0 229 -85t94 -220q0 -131 -95 -218t-228 -87q-135 0 -229.5 85t-94.5 220zM190 1139q0 -86 67 -146.5t153 -60.5t152.5 60.5t66.5 146.5q0 96 -61.5 151.5t-157.5 55.5q-94 0 -157 -56.5t-63 -150.5z" />
<glyph unicode="&#xb1;" horiz-adv-x="1228" d="M94 0v141h1039v-141h-1039zM94 551v141h449v346h141v-346h449v-141h-449v-346h-141v346h-449z" />
<glyph unicode="&#xb2;" horiz-adv-x="739" d="M92 582v84l217 194q96 92 150 170q66 96 65 170q0 66 -46 106t-113 40q-57 0 -113.5 -16.5t-110.5 -45.5l-16 102q119 57 240 58q127 0 196 -53q80 -61 80 -185q0 -131 -119 -268q-35 -41 -125 -125l-151 -133h403v-98h-557z" />
<glyph unicode="&#xb3;" horiz-adv-x="739" d="M70 602l10 107q109 -43 246 -43q86 0 150.5 43t64.5 114q0 98 -105 133q-57 18 -176 19h-57v98h57q104 0 170 23q106 37 107 125q0 74 -76 104q-51 20 -129 21q-57 0 -109.5 -12.5t-101.5 -35.5l-8 107q43 16 116.5 27.5t126.5 11.5q119 0 201 -49q96 -57 96 -166 q0 -78 -51 -129t-143 -72q94 -2 146 -63.5t52 -153.5q0 -121 -110 -186q-96 -57 -232 -58q-78 0 -130 6.5t-115 28.5z" />
<glyph unicode="&#xb4;" horiz-adv-x="454" d="M109 1171l190 295h162l-258 -295h-94z" />
<glyph unicode="&#xb5;" d="M162 -430v1474h129v-634q0 -158 58.5 -241t189.5 -83q160 0 241 125q68 104 68 256v577h129v-798q0 -61 1 -118.5t7 -127.5h-125v186q-47 -94 -106 -141q-88 -70 -236 -70q-68 0 -120 13.5t-107 46.5v-465h-129z" />
<glyph unicode="&#xb6;" horiz-adv-x="1228" d="M98 1036q0 197 122 295.5t345 98.5h492v-1651h-129v1540h-275v-1540h-129v876q-182 0 -304 109.5t-122 271.5z" />
<glyph unicode="&#xb7;" horiz-adv-x="569" d="M188 637q0 47 29 72.5t70 25.5q39 0 67.5 -26.5t28.5 -71.5t-29.5 -70.5t-66.5 -25.5q-39 0 -69 25.5t-30 70.5z" />
<glyph unicode="&#xb8;" horiz-adv-x="454" d="M14 -334l15 76q29 -20 81 -39.5t101 -19.5q47 0 76.5 19t29.5 56q0 76 -77 76q-47 0 -86 -8l59 174h55l-39 -111l68 7q66 0 107.5 -35t41.5 -99q0 -63 -45 -98q-57 -43 -180 -43q-55 0 -131 21q-37 10 -76 24z" />
<glyph unicode="&#xb9;" horiz-adv-x="739" d="M158 1280l211 164h106v-862h-117v749l-155 -119z" />
<glyph unicode="&#xba;" horiz-adv-x="739" d="M47 1122q0 143 76 232q86 100 248 100t245 -96q76 -88 76 -236q0 -139 -76 -227q-86 -100 -245 -100q-160 0 -246 98q-78 88 -78 229zM152 1122q0 -106 59 -173.5t160 -67.5q100 0 158.5 66.5t58.5 174.5q0 102 -59.5 174t-157.5 72q-100 0 -159.5 -71t-59.5 -175z" />
<glyph unicode="&#xbb;" d="M186 131l273 420l-273 420h121l287 -420l-287 -420h-121zM545 131l272 420l-272 420h121l286 -420l-286 -420h-121z" />
<glyph unicode="&#xbc;" horiz-adv-x="1708" d="M145 1280l211 164h107v-862h-117v749l-156 -119zM266 -45l908 1520h116l-907 -1520h-117zM883 186v101l426 575h139v-577h115v-99h-115v-186h-117v186h-448zM999 285h332v436z" />
<glyph unicode="&#xbd;" horiz-adv-x="1708" d="M121 1280l211 164h106v-862h-116v749l-156 -119zM240 -45l907 1520h117l-908 -1520h-116zM1030 0v84l217 195q96 92 150 170q66 96 65 169q0 66 -46 106t-113 40q-57 0 -113.5 -16.5t-110.5 -45.5l-16 103q119 57 240 57q127 0 196 -53q80 -61 80 -184q0 -131 -119 -269 q-35 -41 -125 -125l-151 -133h403v-98h-557z" />
<glyph unicode="&#xbe;" horiz-adv-x="1708" d="M109 602l10 107q109 -43 246 -43q86 0 150.5 43t64.5 114q0 98 -105 133q-57 18 -176 19h-57v98h57q104 0 170 23q106 37 106 125q0 74 -75 104q-51 20 -129 21q-57 0 -109.5 -12.5t-101.5 -35.5l-8 107q43 16 116.5 27.5t126.5 11.5q119 0 201 -49q96 -57 96 -166 q0 -78 -51 -129t-143 -72q94 -2 146 -63.5t52 -153.5q0 -121 -110 -186q-96 -57 -232 -58q-78 0 -130 6.5t-115 28.5zM424 -45l907 1520h119l-907 -1520h-119zM922 186v101l426 575h139v-577h115v-99h-115v-186h-117v186h-448zM1038 285h332v436z" />
<glyph unicode="&#xbf;" horiz-adv-x="1024" d="M156 -43q0 141 90 260q84 96 168 195q92 121 92 256v30h129v-26q0 -158 -86 -279l-164 -188q-88 -115 -88 -248q0 -111 72.5 -177.5t185.5 -66.5q80 0 152 17q31 6 135 41l6 -129q-86 -25 -155.5 -38.5t-143.5 -13.5q-170 0 -277 88q-117 96 -116 279zM485 872v172h166 v-172h-166z" />
<glyph unicode="&#xc0;" horiz-adv-x="1366" d="M27 0l585 1430h160l567 -1430h-147l-154 383h-721l-153 -383h-137zM371 506h620l-309 788zM449 1781h162l190 -295h-94z" />
<glyph unicode="&#xc1;" horiz-adv-x="1366" d="M27 0l585 1430h160l567 -1430h-147l-154 383h-721l-153 -383h-137zM371 506h620l-309 788zM566 1486l190 295h162l-258 -295h-94z" />
<glyph unicode="&#xc2;" horiz-adv-x="1366" d="M27 0l585 1430h160l567 -1430h-147l-154 383h-721l-153 -383h-137zM371 506h620l-309 788zM410 1486l190 295h168l191 -295h-94l-181 209l-180 -209h-94z" />
<glyph unicode="&#xc3;" horiz-adv-x="1366" d="M27 0l585 1430h160l567 -1430h-147l-154 383h-721l-153 -383h-137zM371 506h620l-309 788zM402 1534q16 76 53 124q45 59 113 60q35 0 53 -4t64 -19.5t65.5 -21.5t32.5 -6q35 0 62.5 17t37.5 52h76q-14 -98 -74 -145q-45 -35 -96 -35q-33 0 -57.5 6t-64.5 19.5 t-62.5 19.5t-38.5 6q-37 0 -57 -17t-34 -56h-73z" />
<glyph unicode="&#xc4;" horiz-adv-x="1366" d="M27 0l585 1430h160l567 -1430h-147l-154 383h-721l-153 -383h-137zM371 506h620l-309 788zM432 1552v172h154v-172h-154zM783 1552v172h153v-172h-153z" />
<glyph unicode="&#xc5;" horiz-adv-x="1366" d="M27 0l585 1430h160l567 -1430h-147l-154 383h-721l-153 -383h-137zM371 506h620l-309 788zM488 1671q0 82 56 138.5t140 56.5t140.5 -56.5t56.5 -138.5q0 -84 -55.5 -139t-141.5 -55t-141 55t-55 139zM561 1671q0 -51 37 -86t86 -35q53 0 88 33t35 88q0 51 -34.5 86 t-88.5 35q-49 0 -86 -35t-37 -86z" />
<glyph unicode="&#xc6;" horiz-adv-x="1820" d="M0 0l893 1430h780v-123h-555v-510h527v-123h-527v-551h580v-123h-719v383h-586l-237 -383h-156zM469 506h508v813z" />
<glyph unicode="&#xc7;" horiz-adv-x="1366" d="M117 715q0 330 196.5 534.5t524.5 204.5q90 0 181 -12t146 -41l-8 -131q-57 31 -148 46t-171 15q-272 0 -426 -171t-154 -445q0 -276 148 -443q156 -174 432 -174q86 0 175 14.5t144 47.5l8 -123q-49 -31 -149.5 -46.5t-177.5 -15.5l-29 2l-31 -88l68 7q66 0 107.5 -35 t41.5 -99q0 -63 -45 -98q-57 -43 -180 -43q-55 0 -131 21q-37 10 -76 24l15 76q29 -20 81 -39.5t101 -19.5q47 0 76.5 19t29.5 56q0 76 -78 76q-47 0 -86 -8l52 156q-293 0 -469 211q-168 203 -168 522z" />
<glyph unicode="&#xc8;" horiz-adv-x="1024" d="M176 0v1430h701v-123h-560v-510h531v-123h-531v-551h584v-123h-725zM277 1781h162l190 -295h-94z" />
<glyph unicode="&#xc9;" horiz-adv-x="1024" d="M176 0v1430h701v-123h-560v-510h531v-123h-531v-551h584v-123h-725zM394 1486l190 295h162l-258 -295h-94z" />
<glyph unicode="&#xca;" horiz-adv-x="1024" d="M176 0v1430h701v-123h-560v-510h531v-123h-531v-551h584v-123h-725zM238 1486l190 295h168l191 -295h-94l-181 209l-180 -209h-94z" />
<glyph unicode="&#xcb;" horiz-adv-x="1024" d="M176 0v1430h701v-123h-560v-510h531v-123h-531v-551h584v-123h-725zM260 1552v172h154v-172h-154zM611 1552v172h153v-172h-153z" />
<glyph unicode="&#xcc;" horiz-adv-x="454" d="M-8 1781h162l190 -295h-94zM158 0v1430h141v-1430h-141z" />
<glyph unicode="&#xcd;" horiz-adv-x="454" d="M109 1486l190 295h162l-258 -295h-94zM158 0v1430h141v-1430h-141z" />
<glyph unicode="&#xce;" horiz-adv-x="454" d="M-47 1486l190 295h168l191 -295h-94l-181 209l-180 -209h-94zM158 0v1430h141v-1430h-141z" />
<glyph unicode="&#xcf;" horiz-adv-x="454" d="M-25 1552v172h154v-172h-154zM158 0v1430h141v-1430h-141zM326 1552v172h153v-172h-153z" />
<glyph unicode="&#xd0;" horiz-adv-x="1366" d="M23 674v123h141v633h242q399 0 606 -166q221 -178 221 -547q0 -371 -232 -553q-209 -164 -587 -164h-250v674h-141zM305 123h117q322 0 487 135q182 150 183 467q0 326 -189 463q-164 119 -504 119h-94v-510h436v-123h-436v-551z" />
<glyph unicode="&#xd1;" horiz-adv-x="1366" d="M158 0v1430h178l727 -1258l4 1258h141v-1430h-190l-715 1233l-4 -1233h-141zM402 1534q16 76 53 124q45 59 113 60q35 0 53 -4t64 -19.5t65.5 -21.5t32.5 -6q35 0 62.5 17t37.5 52h76q-14 -98 -74 -145q-45 -35 -96 -35q-33 0 -57.5 6t-64.5 19.5t-62.5 19.5t-38.5 6 q-37 0 -57 -17t-34 -56h-73z" />
<glyph unicode="&#xd2;" horiz-adv-x="1478" d="M111 715q0 313 151 514q170 225 477 225q305 0 475 -223q154 -203 154 -516q0 -338 -160 -535q-166 -205 -469 -205t-465.5 201t-162.5 539zM252 715q0 -252 117 -422q133 -195 370 -195q236 0 369 195q119 172 119 422q0 252 -117 422q-133 194 -371 194 q-236 0 -368 -194q-119 -172 -119 -422zM504 1781h162l190 -295h-94z" />
<glyph unicode="&#xd3;" horiz-adv-x="1478" d="M111 715q0 313 151 514q170 225 477 225q305 0 475 -223q154 -203 154 -516q0 -338 -160 -535q-166 -205 -469 -205t-465.5 201t-162.5 539zM252 715q0 -252 117 -422q133 -195 370 -195q236 0 369 195q119 172 119 422q0 252 -117 422q-133 194 -371 194 q-236 0 -368 -194q-119 -172 -119 -422zM621 1486l190 295h162l-258 -295h-94z" />
<glyph unicode="&#xd4;" horiz-adv-x="1478" d="M111 715q0 313 151 514q170 225 477 225q305 0 475 -223q154 -203 154 -516q0 -338 -160 -535q-166 -205 -469 -205t-465.5 201t-162.5 539zM252 715q0 -252 117 -422q133 -195 370 -195q236 0 369 195q119 172 119 422q0 252 -117 422q-133 194 -371 194 q-236 0 -368 -194q-119 -172 -119 -422zM465 1486l190 295h168l191 -295h-94l-181 209l-180 -209h-94z" />
<glyph unicode="&#xd5;" horiz-adv-x="1478" d="M111 715q0 313 151 514q170 225 477 225q305 0 475 -223q154 -203 154 -516q0 -338 -160 -535q-166 -205 -469 -205t-465.5 201t-162.5 539zM252 715q0 -252 117 -422q133 -195 370 -195q236 0 369 195q119 172 119 422q0 252 -117 422q-133 194 -371 194 q-236 0 -368 -194q-119 -172 -119 -422zM457 1534q16 76 53 124q45 59 113 60q35 0 53 -4t64 -19.5t65.5 -21.5t32.5 -6q35 0 62.5 17t37.5 52h76q-14 -98 -74 -145q-45 -35 -96 -35q-33 0 -57.5 6t-64.5 19.5t-62.5 19.5t-38.5 6q-37 0 -57 -17t-34 -56h-73z" />
<glyph unicode="&#xd6;" horiz-adv-x="1478" d="M111 715q0 313 151 514q170 225 477 225q305 0 475 -223q154 -203 154 -516q0 -338 -160 -535q-166 -205 -469 -205t-465.5 201t-162.5 539zM252 715q0 -252 117 -422q133 -195 370 -195q236 0 369 195q119 172 119 422q0 252 -117 422q-133 194 -371 194 q-236 0 -368 -194q-119 -172 -119 -422zM487 1552v172h154v-172h-154zM838 1552v172h153v-172h-153z" />
<glyph unicode="&#xd7;" horiz-adv-x="1228" d="M145 156l371 370l-371 369l101 100l370 -370l367 370l102 -100l-368 -369l368 -370l-102 -103l-367 373l-370 -373z" />
<glyph unicode="&#xd8;" horiz-adv-x="1478" d="M59 23l181 206q-129 188 -129 486q0 313 151 514q170 225 477 225q135 0 239.5 -42t184.5 -124l176 201l80 -68l-186 -215q68 -96 101.5 -222t33.5 -269q0 -338 -160 -535q-166 -205 -469 -205q-141 0 -248.5 43t-185.5 127l-166 -190zM252 715q0 -102 20.5 -194.5 t67.5 -174.5l731 836q-61 72 -144 110.5t-188 38.5q-236 0 -368 -194q-119 -172 -119 -422zM401 254q61 -74 145.5 -115t192.5 -41q236 0 369 195q119 172 119 422q0 111 -21.5 201t-70.5 178z" />
<glyph unicode="&#xd9;" horiz-adv-x="1366" d="M166 500v930h141v-930q0 -182 97.5 -292t279.5 -110q180 0 278.5 110.5t98.5 291.5v930h141v-930q0 -283 -180 -420q-137 -104 -338 -105q-201 0 -336 103q-182 137 -182 422zM449 1781h162l190 -295h-94z" />
<glyph unicode="&#xda;" horiz-adv-x="1366" d="M166 500v930h141v-930q0 -182 97.5 -292t279.5 -110q180 0 278.5 110.5t98.5 291.5v930h141v-930q0 -283 -180 -420q-137 -104 -338 -105q-201 0 -336 103q-182 137 -182 422zM566 1486l190 295h162l-258 -295h-94z" />
<glyph unicode="&#xdb;" horiz-adv-x="1366" d="M166 500v930h141v-930q0 -182 97.5 -292t279.5 -110q180 0 278.5 110.5t98.5 291.5v930h141v-930q0 -283 -180 -420q-137 -104 -338 -105q-201 0 -336 103q-182 137 -182 422zM410 1486l190 295h168l191 -295h-94l-181 209l-180 -209h-94z" />
<glyph unicode="&#xdc;" horiz-adv-x="1366" d="M166 500v930h141v-930q0 -182 97.5 -292t279.5 -110q180 0 278.5 110.5t98.5 291.5v930h141v-930q0 -283 -180 -420q-137 -104 -338 -105q-201 0 -336 103q-182 137 -182 422zM432 1552v172h154v-172h-154zM783 1552v172h153v-172h-153z" />
<glyph unicode="&#xdd;" horiz-adv-x="1251" d="M25 1430h163l437 -699l448 699h154l-531 -824v-606h-141v606zM508 1486l190 295h162l-258 -295h-94z" />
<glyph unicode="&#xde;" horiz-adv-x="1024" d="M176 0v1430h141v-267h211q207 0 325 -103.5t118 -301.5q0 -195 -131 -303q-123 -102 -326 -103h-197v-352h-141zM317 475h99q254 0 340 78q74 66 73 205q0 135 -73.5 208.5t-208.5 73.5h-230v-565z" />
<glyph unicode="&#xdf;" d="M162 0v1110q0 205 103.5 328t305.5 123q176 0 281.5 -103.5t105.5 -277.5q0 -139 -72.5 -233.5t-201.5 -123.5q168 -2 260 -107.5t92 -275.5q0 -201 -120.5 -327.5t-323.5 -126.5q-63 0 -100 5t-74 19l8 121q29 -16 76 -25.5t92 -9.5q141 0 221 94.5t80 247.5 q0 170 -107 246q-94 68 -284 68h-21v110h37q131 0 214 85t83 229q0 121 -65.5 197.5t-180.5 76.5q-127 0 -194 -76q-86 -96 -86 -309v-1065h-129z" />
<glyph unicode="&#xe0;" horiz-adv-x="1024" d="M82 270q0 231 219 314q141 53 424 53h25v53q0 137 -55.5 202.5t-182.5 65.5q-172 0 -307 -86v125q63 31 148 51.5t159 20.5q195 0 281 -92t86 -297v-461q0 -57 1 -106.5t9 -112.5h-127v168q-45 -90 -138.5 -141.5t-197.5 -51.5q-195 0 -283 111q-61 78 -61 184zM223 274 q0 -96 64 -145q55 -43 153 -43q152 0 231 90t79 287v63h-37q-285 0 -394 -69q-96 -61 -96 -183zM277 1448h162l190 -295h-94z" />
<glyph unicode="&#xe1;" horiz-adv-x="1024" d="M82 270q0 231 219 314q141 53 424 53h25v53q0 137 -55.5 202.5t-182.5 65.5q-172 0 -307 -86v125q63 31 148 51.5t159 20.5q195 0 281 -92t86 -297v-461q0 -57 1 -106.5t9 -112.5h-127v168q-45 -90 -138.5 -141.5t-197.5 -51.5q-195 0 -283 111q-61 78 -61 184zM223 274 q0 -96 64 -145q55 -43 153 -43q152 0 231 90t79 287v63h-37q-285 0 -394 -69q-96 -61 -96 -183zM394 1153l190 295h162l-258 -295h-94z" />
<glyph unicode="&#xe2;" horiz-adv-x="1024" d="M82 270q0 231 219 314q141 53 424 53h25v53q0 137 -55.5 202.5t-182.5 65.5q-172 0 -307 -86v125q63 31 148 51.5t159 20.5q195 0 281 -92t86 -297v-461q0 -57 1 -106.5t9 -112.5h-127v168q-45 -90 -138.5 -141.5t-197.5 -51.5q-195 0 -283 111q-61 78 -61 184zM223 274 q0 -96 64 -145q55 -43 153 -43q152 0 231 90t79 287v63h-37q-285 0 -394 -69q-96 -61 -96 -183zM238 1153l190 295h168l191 -295h-94l-181 209l-180 -209h-94z" />
<glyph unicode="&#xe3;" horiz-adv-x="1024" d="M82 270q0 231 219 314q141 53 424 53h25v53q0 137 -55.5 202.5t-182.5 65.5q-172 0 -307 -86v125q63 31 148 51.5t159 20.5q195 0 281 -92t86 -297v-461q0 -57 1 -106.5t9 -112.5h-127v168q-45 -90 -138.5 -141.5t-197.5 -51.5q-195 0 -283 111q-61 78 -61 184zM223 274 q0 -96 64 -145q55 -43 153 -43q152 0 231 90t79 287v63h-37q-285 0 -394 -69q-96 -61 -96 -183zM230 1201q16 76 53 124q45 59 113 60q35 0 53 -4t64 -19.5t65.5 -21.5t32.5 -6q35 0 62.5 17t37.5 52h76q-14 -98 -74 -145q-45 -35 -96 -35q-33 0 -57.5 6t-64.5 19.5 t-62.5 19.5t-38.5 6q-37 0 -57 -17t-34 -56h-73z" />
<glyph unicode="&#xe4;" horiz-adv-x="1024" d="M82 270q0 231 219 314q141 53 424 53h25v53q0 137 -55.5 202.5t-182.5 65.5q-172 0 -307 -86v125q63 31 148 51.5t159 20.5q195 0 281 -92t86 -297v-461q0 -57 1 -106.5t9 -112.5h-127v168q-45 -90 -138.5 -141.5t-197.5 -51.5q-195 0 -283 111q-61 78 -61 184zM223 274 q0 -96 64 -145q55 -43 153 -43q152 0 231 90t79 287v63h-37q-285 0 -394 -69q-96 -61 -96 -183zM260 1219v172h154v-172h-154zM611 1219v172h153v-172h-153z" />
<glyph unicode="&#xe5;" horiz-adv-x="1024" d="M82 270q0 231 219 314q141 53 424 53h25v53q0 137 -55.5 202.5t-182.5 65.5q-172 0 -307 -86v125q63 31 148 51.5t159 20.5q195 0 281 -92t86 -297v-461q0 -57 1 -106.5t9 -112.5h-127v168q-45 -90 -138.5 -141.5t-197.5 -51.5q-195 0 -283 111q-61 78 -61 184zM223 274 q0 -96 64 -145q55 -43 153 -43q152 0 231 90t79 287v63h-37q-285 0 -394 -69q-96 -61 -96 -183zM316 1327q0 82 56 138.5t140 56.5t140.5 -56.5t56.5 -138.5q0 -84 -55.5 -139t-141.5 -55t-141 55t-55 139zM389 1327q0 -51 37 -86t86 -35q53 0 88 33t35 88q0 51 -34.5 86 t-88.5 35q-49 0 -86 -35t-37 -86z" />
<glyph unicode="&#xe6;" horiz-adv-x="1705" d="M94 254q0 217 211 295q127 47 367 47h90v55q0 147 -45 219q-55 88 -191 88q-90 0 -161.5 -19t-147.5 -67v125q63 31 148.5 51.5t158.5 20.5q123 0 204 -42t130 -146q57 86 146.5 137t191.5 51q209 0 317 -154q98 -137 99 -364v-66h-709v-47q0 -160 78 -250 q88 -102 260 -102q68 0 158 24.5t135 53.5v-131q-68 -27 -146.5 -42.5t-156.5 -15.5q-156 0 -256.5 57.5t-140.5 153.5q-80 -117 -191 -168q-92 -43 -205 -43q-160 0 -252 71t-92 208zM236 254q0 -78 66.5 -123t150.5 -45q160 0 239 100q70 88 70 244v55h-45 q-201 0 -301 -28q-180 -51 -180 -203zM903 596h567q0 154 -59 250q-70 113 -207 112q-131 0 -216 -109.5t-85 -252.5z" />
<glyph unicode="&#xe7;" horiz-adv-x="909" d="M84 522q0 242 142.5 394.5t373.5 152.5q88 0 160 -14q31 -7 92 -27l-10 -123q-59 27 -113.5 40t-110.5 13q-184 0 -288.5 -120.5t-104.5 -315.5q0 -184 103.5 -310t275.5 -126q109 0 236 47l12 -121q-55 -20 -125 -28.5t-143 -8.5l-35 -86l67 7q66 0 108 -35t42 -99 q0 -63 -45 -98q-57 -43 -180 -43q-55 0 -131 21q-37 10 -76 24l14 76q29 -20 81 -39.5t101 -19.5q47 0 77 19t30 56q0 76 -78 76q-47 0 -86 -8l53 154q-215 20 -333 180q-109 145 -109 362z" />
<glyph unicode="&#xe8;" horiz-adv-x="1024" d="M84 522q0 242 122 394.5t318 152.5q209 0 318 -154q98 -137 98 -364v-66h-715q0 -174 89 -286.5t255 -112.5q68 0 158 24.5t135 53.5v-131q-68 -27 -146.5 -42.5t-156.5 -15.5q-246 0 -366 156q-109 141 -109 391zM225 596h574q0 154 -60 250q-70 113 -207 112 q-135 0 -225 -116q-82 -107 -82 -246zM277 1448h162l190 -295h-94z" />
<glyph unicode="&#xe9;" horiz-adv-x="1024" d="M84 522q0 242 122 394.5t318 152.5q209 0 318 -154q98 -137 98 -364v-66h-715q0 -174 89 -286.5t255 -112.5q68 0 158 24.5t135 53.5v-131q-68 -27 -146.5 -42.5t-156.5 -15.5q-246 0 -366 156q-109 141 -109 391zM225 596h574q0 154 -60 250q-70 113 -207 112 q-135 0 -225 -116q-82 -107 -82 -246zM394 1153l190 295h162l-258 -295h-94z" />
<glyph unicode="&#xea;" horiz-adv-x="1024" d="M84 522q0 242 122 394.5t318 152.5q209 0 318 -154q98 -137 98 -364v-66h-715q0 -174 89 -286.5t255 -112.5q68 0 158 24.5t135 53.5v-131q-68 -27 -146.5 -42.5t-156.5 -15.5q-246 0 -366 156q-109 141 -109 391zM225 596h574q0 154 -60 250q-70 113 -207 112 q-135 0 -225 -116q-82 -107 -82 -246zM238 1153l190 295h168l191 -295h-94l-181 209l-180 -209h-94z" />
<glyph unicode="&#xeb;" horiz-adv-x="1024" d="M84 522q0 242 122 394.5t318 152.5q209 0 318 -154q98 -137 98 -364v-66h-715q0 -174 89 -286.5t255 -112.5q68 0 158 24.5t135 53.5v-131q-68 -27 -146.5 -42.5t-156.5 -15.5q-246 0 -366 156q-109 141 -109 391zM225 596h574q0 154 -60 250q-70 113 -207 112 q-135 0 -225 -116q-82 -107 -82 -246zM260 1219v172h154v-172h-154zM611 1219v172h153v-172h-153z" />
<glyph unicode="&#xec;" horiz-adv-x="454" d="M-8 1448h162l190 -295h-94zM162 0v1044h129v-1044h-129z" />
<glyph unicode="&#xed;" horiz-adv-x="454" d="M109 1153l190 295h162l-258 -295h-94zM162 0v1044h129v-1044h-129z" />
<glyph unicode="&#xee;" horiz-adv-x="454" d="M-47 1153l190 295h168l191 -295h-94l-181 209l-180 -209h-94zM162 0v1044h129v-1044h-129z" />
<glyph unicode="&#xef;" horiz-adv-x="454" d="M-25 1219v172h154v-172h-154zM162 0v1044h129v-1044h-129zM326 1219v172h153v-172h-153z" />
<glyph unicode="&#xf0;" d="M82 522q0 231 117 381q131 166 370 166q190 0 322 -162q-25 119 -85.5 216.5t-150.5 168.5l-221 -137l-61 86l186 117q-121 74 -276 104l24 99q215 -29 373 -129l219 135l62 -86l-191 -117q147 -127 217 -319.5t70 -438.5q0 -309 -121 -470t-367 -161q-240 0 -370 166 q-117 147 -117 381zM223 522q0 -190 91.5 -313t254.5 -123q164 0 258 127q88 119 88 309t-88 309q-94 127 -258 127t-255 -123t-91 -313z" />
<glyph unicode="&#xf1;" d="M154 1044h125v-186q47 94 106 141q88 70 236 70q182 0 274 -115q82 -102 82 -286v-668h-129v635q0 158 -55 235q-61 88 -193 88q-160 0 -242 -124q-68 -104 -67 -256v-578h-129v799v59v23q0 90 -8 163zM287 1201q16 76 53 124q45 59 113 60q35 0 53 -4t64 -19.5 t65.5 -21.5t32.5 -6q35 0 62.5 17t37.5 52h76q-14 -98 -74 -145q-45 -35 -96 -35q-33 0 -57.5 6t-64.5 19.5t-62.5 19.5t-38.5 6q-37 0 -57 -17t-34 -56h-73z" />
<glyph unicode="&#xf2;" d="M82 522q0 231 117 381q131 166 370 166q240 0 371 -166q117 -147 117 -381q0 -231 -117 -381q-131 -166 -371 -166t-370 166q-117 148 -117 381zM223 522q0 -190 91.5 -313t254.5 -123q164 0 258 127q88 119 88 309t-88 309q-94 127 -258 127t-255 -123t-91 -313z M334 1448h162l190 -295h-94z" />
<glyph unicode="&#xf3;" d="M82 522q0 231 117 381q131 166 370 166q240 0 371 -166q117 -147 117 -381q0 -231 -117 -381q-131 -166 -371 -166t-370 166q-117 148 -117 381zM223 522q0 -190 91.5 -313t254.5 -123q164 0 258 127q88 119 88 309t-88 309q-94 127 -258 127t-255 -123t-91 -313z M451 1153l190 295h162l-258 -295h-94z" />
<glyph unicode="&#xf4;" d="M82 522q0 231 117 381q131 166 370 166q240 0 371 -166q117 -147 117 -381q0 -231 -117 -381q-131 -166 -371 -166t-370 166q-117 148 -117 381zM223 522q0 -190 91.5 -313t254.5 -123q164 0 258 127q88 119 88 309t-88 309q-94 127 -258 127t-255 -123t-91 -313z M295 1153l190 295h168l191 -295h-94l-181 209l-180 -209h-94z" />
<glyph unicode="&#xf5;" d="M82 522q0 231 117 381q131 166 370 166q240 0 371 -166q117 -147 117 -381q0 -231 -117 -381q-131 -166 -371 -166t-370 166q-117 148 -117 381zM223 522q0 -190 91.5 -313t254.5 -123q164 0 258 127q88 119 88 309t-88 309q-94 127 -258 127t-255 -123t-91 -313z M287 1201q16 76 53 124q45 59 113 60q35 0 53 -4t64 -19.5t65.5 -21.5t32.5 -6q35 0 62.5 17t37.5 52h76q-14 -98 -74 -145q-45 -35 -96 -35q-33 0 -57.5 6t-64.5 19.5t-62.5 19.5t-38.5 6q-37 0 -57 -17t-34 -56h-73z" />
<glyph unicode="&#xf6;" d="M82 522q0 231 117 381q131 166 370 166q240 0 371 -166q117 -147 117 -381q0 -231 -117 -381q-131 -166 -371 -166t-370 166q-117 148 -117 381zM223 522q0 -190 91.5 -313t254.5 -123q164 0 258 127q88 119 88 309t-88 309q-94 127 -258 127t-255 -123t-91 -313z M317 1219v172h154v-172h-154zM668 1219v172h153v-172h-153z" />
<glyph unicode="&#xf7;" horiz-adv-x="1228" d="M94 449v141h1039v-141h-1039zM483 117q0 53 39 92t92 39t92 -39t39 -92q0 -49 -38.5 -90t-92.5 -41q-53 0 -92 39t-39 92zM483 922q0 53 39 92t92 39t92 -39t39 -92q0 -49 -38.5 -90t-92.5 -41q-53 0 -92 39t-39 92z" />
<glyph unicode="&#xf8;" d="M39 -23l154 177q-57 74 -84 168t-27 200q0 231 117 381q131 166 370 166q102 0 183.5 -29.5t136.5 -85.5l139 162l72 -59l-150 -172q53 -68 80 -164t27 -199q0 -231 -117 -381q-131 -166 -371 -166q-98 0 -177 28t-138 81l-143 -166zM223 522q1 -151 62 -262l520 598 q-94 100 -236 100q-164 0 -255 -122.5t-91 -313.5zM340 182q90 -96 229 -96q164 0 258 127q88 119 88 309q0 150 -57 256z" />
<glyph unicode="&#xf9;" d="M162 377v667h129v-634q0 -158 58.5 -241t189.5 -83q160 0 241 125q68 104 68 256v577h129v-798q0 -61 1 -118.5t7 -127.5h-125v186q-47 -94 -106 -141q-88 -70 -236 -70q-182 0 -274 115q-82 102 -82 287zM334 1448h162l190 -295h-94z" />
<glyph unicode="&#xfa;" d="M162 377v667h129v-634q0 -158 58.5 -241t189.5 -83q160 0 241 125q68 104 68 256v577h129v-798q0 -61 1 -118.5t7 -127.5h-125v186q-47 -94 -106 -141q-88 -70 -236 -70q-182 0 -274 115q-82 102 -82 287zM451 1153l190 295h162l-258 -295h-94z" />
<glyph unicode="&#xfb;" d="M162 377v667h129v-634q0 -158 58.5 -241t189.5 -83q160 0 241 125q68 104 68 256v577h129v-798q0 -61 1 -118.5t7 -127.5h-125v186q-47 -94 -106 -141q-88 -70 -236 -70q-182 0 -274 115q-82 102 -82 287zM295 1153l190 295h168l191 -295h-94l-181 209l-180 -209h-94z " />
<glyph unicode="&#xfc;" d="M162 377v667h129v-634q0 -158 58.5 -241t189.5 -83q160 0 241 125q68 104 68 256v577h129v-798q0 -61 1 -118.5t7 -127.5h-125v186q-47 -94 -106 -141q-88 -70 -236 -70q-182 0 -274 115q-82 102 -82 287zM317 1219v172h154v-172h-154zM668 1219v172h153v-172h-153z" />
<glyph unicode="&#xfd;" horiz-adv-x="909" d="M18 1044h142l293 -870l303 870h135l-418 -1200q-45 -133 -96 -196q-72 -90 -172 -90q-70 0 -139 16l12 111q18 -6 43.5 -11.5t52.5 -5.5q78 0 121 62q31 43 67 166l27 92zM336 1153l190 295h162l-258 -295h-94z" />
<glyph unicode="&#xfe;" d="M150 -430v1966h129v-682q41 84 92 129q94 86 237 86q219 0 330 -154q100 -141 100 -393q0 -244 -106 -389q-115 -158 -324 -158q-233 0 -325 215l-4 -620h-129zM279 522q0 -170 67 -289q84 -147 242 -147q166 0 246 141q63 113 63 295q0 184 -61 295q-78 141 -248 141 q-156 0 -240 -145q-70 -121 -69 -291z" />
<glyph unicode="&#xff;" horiz-adv-x="909" d="M18 1044h142l293 -870l303 870h135l-418 -1200q-45 -133 -96 -196q-72 -90 -172 -90q-70 0 -139 16l12 111q18 -6 43.5 -11.5t52.5 -5.5q78 0 121 62q31 43 67 166l27 92zM202 1219v172h154v-172h-154zM553 1219v172h153v-172h-153z" />
<glyph unicode="&#x152;" horiz-adv-x="1820" d="M111 715q0 305 129 499q152 229 438 230q59 0 180 -7t164 -7h651v-123h-555v-510h527v-123h-527v-551h580v-123h-676q-59 0 -180 -7t-164 -7q-285 0 -436 229q-131 199 -131 500zM252 715q0 -303 127 -457q121 -147 338 -147q57 0 141 6t119 6v1184q-33 0 -117 6t-143 6 q-213 0 -334 -145q-131 -158 -131 -459z" />
<glyph unicode="&#x153;" horiz-adv-x="1820" d="M74 522q0 231 116 381q131 166 371 166q141 0 239.5 -53t153.5 -172q57 113 150.5 169t224.5 56q207 0 318 -156q98 -139 98 -358v-70h-715q0 -174 89 -286.5t255 -112.5q68 0 158 24.5t135 53.5v-131q-68 -27 -146.5 -42.5t-156.5 -15.5q-150 0 -248 55.5t-153 157.5 q-57 -100 -157.5 -156.5t-244.5 -56.5q-240 0 -371 166q-117 147 -116 381zM215 522q0 -190 91 -313t255 -123q178 0 260 129q68 106 68 307q0 193 -66 301q-82 135 -262 135q-164 0 -255 -123t-91 -313zM1030 596h574q0 150 -66 250q-74 113 -201 112q-145 0 -226 -99 t-81 -263z" />
<glyph unicode="&#x178;" horiz-adv-x="1251" d="M25 1430h163l437 -699l448 699h154l-531 -824v-606h-141v606zM374 1552v172h154v-172h-154zM725 1552v172h153v-172h-153z" />
<glyph unicode="&#x2c6;" horiz-adv-x="454" d="M-47 1171l190 295h168l191 -295h-94l-181 209l-180 -209h-94z" />
<glyph unicode="&#x2dc;" horiz-adv-x="454" d="M-55 1219q16 76 53 124q45 59 113 60q35 0 53 -4t64 -19.5t65.5 -21.5t32.5 -6q35 0 62.5 17t37.5 52h76q-14 -98 -74 -145q-45 -35 -96 -35q-33 0 -57.5 6t-64.5 19.5t-62.5 19.5t-38.5 6q-37 0 -57 -17t-34 -56h-73z" />
<glyph unicode="&#x2000;" horiz-adv-x="933" />
<glyph unicode="&#x2001;" horiz-adv-x="1866" />
<glyph unicode="&#x2002;" horiz-adv-x="933" />
<glyph unicode="&#x2003;" horiz-adv-x="1866" />
<glyph unicode="&#x2004;" horiz-adv-x="622" />
<glyph unicode="&#x2005;" horiz-adv-x="466" />
<glyph unicode="&#x2006;" horiz-adv-x="311" />
<glyph unicode="&#x2007;" horiz-adv-x="311" />
<glyph unicode="&#x2008;" horiz-adv-x="233" />
<glyph unicode="&#x2009;" horiz-adv-x="373" />
<glyph unicode="&#x200a;" horiz-adv-x="103" />
<glyph unicode="&#x2010;" horiz-adv-x="681" d="M84 481v142h514v-142h-514z" />
<glyph unicode="&#x2011;" horiz-adv-x="681" d="M84 481v142h514v-142h-514z" />
<glyph unicode="&#x2012;" horiz-adv-x="681" d="M84 481v142h514v-142h-514z" />
<glyph unicode="&#x2013;" horiz-adv-x="1024" d="M0 496v110h1024v-110h-1024z" />
<glyph unicode="&#x2014;" horiz-adv-x="2048" d="M0 496v110h2048v-110h-2048z" />
<glyph unicode="&#x2018;" horiz-adv-x="569" d="M147 983l158 447h117l-121 -447h-154z" />
<glyph unicode="&#x2019;" horiz-adv-x="569" d="M147 983l121 447h154l-158 -447h-117z" />
<glyph unicode="&#x201a;" horiz-adv-x="569" d="M147 -274l121 446h154l-158 -446h-117z" />
<glyph unicode="&#x201c;" d="M252 983l158 447h116l-120 -447h-154zM612 983l158 447h117l-121 -447h-154z" />
<glyph unicode="&#x201d;" d="M252 983l121 447h153l-157 -447h-117zM612 983l121 447h154l-158 -447h-117z" />
<glyph unicode="&#x201e;" d="M252 -274l121 446h153l-155 -446h-119zM612 -274l121 446h154l-158 -446h-117z" />
<glyph unicode="&#x2022;" horiz-adv-x="1024" d="M156 715q0 145 104.5 251.5t251.5 106.5t252.5 -105.5t105.5 -252.5t-104 -252t-254 -105q-147 0 -251.5 105t-104.5 252z" />
<glyph unicode="&#x2026;" horiz-adv-x="2048" d="M260 0v172h166v-172h-166zM942 0v172h166v-172h-166zM1624 0v172h166v-172h-166z" />
<glyph unicode="&#x202f;" horiz-adv-x="373" />
<glyph unicode="&#x2039;" horiz-adv-x="569" d="M80 551l287 420h120l-272 -420l272 -420h-120z" />
<glyph unicode="&#x203a;" horiz-adv-x="569" d="M82 131l272 420l-272 420h121l286 -420l-286 -420h-121z" />
<glyph unicode="&#x205f;" horiz-adv-x="466" />
<glyph unicode="&#x2122;" horiz-adv-x="2027" d="M131 1331v99h666v-99h-269v-749h-129v749h-268zM979 582v848h209l250 -654l250 654h208v-848h-129v737l-286 -737h-88l-281 737l-4 -737h-129z" />
<glyph unicode="&#xe000;" horiz-adv-x="1044" d="M0 0v1044h1044v-1044h-1044z" />
</font>
</defs>
</svg>
