<?xml version="1.0" standalone="no"?>
<!DOCTYPE svg PUBLIC "-//W3C//DTD SVG 1.1//EN" "http://www.w3.org/Graphics/SVG/1.1/DTD/svg11.dtd" >
<svg xmlns="http://www.w3.org/2000/svg">
<metadata></metadata>
<defs>
<font id="frutiger_55_romannormal" horiz-adv-x="1138" >
<font-face units-per-em="2048" ascent="1638" descent="-410" />
<missing-glyph horiz-adv-x="569" />
<glyph horiz-adv-x="2048" />
<glyph horiz-adv-x="2048" />
<glyph unicode="&#xd;" horiz-adv-x="569" />
<glyph unicode=" "  horiz-adv-x="569" />
<glyph unicode="&#x09;" horiz-adv-x="569" />
<glyph unicode="&#xa0;" horiz-adv-x="569" />
<glyph unicode="!" horiz-adv-x="796" d="M285 0v229h229v-229h-229zM285 1430h229l-27 -1029h-176z" />
<glyph unicode="&#x22;" d="M326 928v502h180v-502h-180zM633 928v502h180v-502h-180z" />
<glyph unicode="#" d="M57 426v156h217l37 266h-196v156h219l59 426h156l-60 -426h242l60 426h155l-59 -426h194v-156h-217l-37 -266h195v-156h-217l-60 -426h-155l59 426h-241l-60 -426h-155l59 426h-195zM430 582h242l37 266h-242z" />
<glyph unicode="$" d="M154 1065q0 150 100 253t252 128v205h119v-197q78 0 145.5 -11t147.5 -40l-29 -189q-100 59 -244 60h-20v-445l118 -65q123 -68 179 -143q63 -88 63 -222q0 -166 -97 -275.5t-263 -135.5v-205h-119v192h-25q-168 0 -311 60l25 196q109 -76 282 -75h29v497l-70 35 q-137 68 -200 143q-82 96 -82 234zM371 1071q0 -57 43 -106q31 -35 92 -74v366q-70 -27 -102.5 -68.5t-32.5 -117.5zM625 178q63 20 103 78.5t40 130.5q0 78 -41 129q-32 41 -102 78v-416z" />
<glyph unicode="%" horiz-adv-x="2048" d="M225 1044q0 188 60 287q74 123 247 123q170 0 246 -123q61 -100 62 -287q0 -178 -64 -282q-78 -127 -244 -127q-164 0 -241 127q-66 106 -66 282zM406 1044q0 -109 16 -163q30 -103 110 -103t109 101q18 63 18 165v39q0 98 -18 148q-29 80 -109 80q-82 0 -110 -101 q-16 -57 -16 -166zM506 -45l887 1520h147l-887 -1520h-147zM1208 385q0 188 60 287q74 123 248 123q170 0 245 -123q61 -100 62 -287q0 -178 -64 -283q-77 -127 -243 -127q-164 0 -242 127q-66 106 -66 283zM1389 385q0 -109 16 -164q31 -102 111 -102t108 100q18 63 18 166 v39q0 98 -18 147q-29 80 -108 80q-82 0 -111 -100q-16 -57 -16 -166z" />
<glyph unicode="&#x26;" horiz-adv-x="1478" d="M170 375q0 156 86 260q78 94 233 158q-90 111 -118.5 180t-28.5 145q0 166 104.5 251t268.5 85q154 0 248 -76q106 -86 106 -248q0 -127 -98 -229q-80 -82 -215 -143l291 -332q45 74 66.5 148.5t21.5 197.5h192q0 -156 -51 -285q-33 -84 -113 -204l250 -283h-256 l-117 139q-76 -86 -174 -125t-235 -39q-211 0 -336 109t-125 291zM387 389q0 -115 82 -186.5t199 -71.5q88 0 163 49q53 33 101 88l-344 404q-104 -72 -142 -115q-59 -70 -59 -168zM535 1114q0 -80 57 -160q18 -25 70 -82q84 41 139 95q76 74 76 155q0 94 -45.5 135 t-124.5 41q-76 0 -124 -47t-48 -137z" />
<glyph unicode="'" horiz-adv-x="569" d="M195 928v502h180v-502h-180z" />
<glyph unicode="(" horiz-adv-x="681" d="M133 631q0 168 45 330q39 141 121 301q59 115 170 286h184q-94 -168 -151 -288q-76 -162 -117 -306q-47 -168 -47 -323q0 -156 43 -312.5t117 -316.5q55 -119 155 -289h-184q-158 238 -238 434q-98 246 -98 484z" />
<glyph unicode=")" horiz-adv-x="681" d="M29 -287q94 168 151 289q76 162 120 317.5t44 311.5t-43 312.5t-117 316.5q-55 118 -155 288h184q158 -238 238 -434q98 -246 98 -483q0 -168 -42 -319.5t-124 -311.5q-59 -115 -170 -287h-184z" />
<glyph unicode="*" d="M147 1057l58 174l309 -127l-33 326h187l-31 -326l299 127l55 -174l-321 -68l219 -252l-154 -102l-166 283l-168 -283l-151 102l225 252z" />
<glyph unicode="+" horiz-adv-x="1228" d="M96 428v180h428v428h181v-428h428v-180h-428v-428h-181v428h-428z" />
<glyph unicode="," horiz-adv-x="569" d="M41 -272l129 501h229l-174 -501h-184z" />
<glyph unicode="-" horiz-adv-x="681" d="M78 473v156h526v-156h-526z" />
<glyph unicode="." horiz-adv-x="569" d="M170 0v229h229v-229h-229z" />
<glyph unicode="/" horiz-adv-x="569" d="M-51 -25l491 1479h181l-492 -1479h-180z" />
<glyph unicode="0" d="M84 715q0 295 94 487q123 252 391 252q266 0 392 -252q94 -190 94 -487q0 -295 -94 -488q-123 -252 -392 -252q-266 0 -391 252q-94 191 -94 488zM301 715q0 -215 41 -353q66 -219 227 -219q160 0 226 219q43 141 43 353q0 209 -45 352q-68 219 -224 219 q-154 0 -221 -217q-47 -151 -47 -354z" />
<glyph unicode="1" d="M223 1143l350 287h183v-1430h-205v1194l-219 -188z" />
<glyph unicode="2" d="M102 0v219l256 230q117 111 177 172q109 115 163 208q72 123 72 230q0 100 -78 163.5t-196 63.5q-92 0 -183 -29q-72 -23 -145 -63l-21 176q96 41 187.5 62.5t187.5 21.5q203 0 330 -102q135 -111 135 -305q0 -109 -72 -238q-57 -104 -163 -225q-57 -66 -179 -187 q-53 -53 -129 -121q-61 -55 -122 -108h686v-168h-906z" />
<glyph unicode="3" d="M104 31l13 190q68 -33 146.5 -55.5t166.5 -22.5q137 0 232 54q117 66 116 190q0 145 -108 215q-90 57 -248 57h-125v168h115q137 0 231 47q123 61 123 187q0 115 -84 174q-74 51 -197 51q-90 0 -166.5 -20.5t-150.5 -57.5l-12 183q76 29 172 46t186 17q205 0 330 -92 q139 -102 139 -297q0 -129 -92 -219q-84 -82 -215 -107q150 -35 234.5 -123t84.5 -235q0 -225 -174 -326q-139 -80 -389 -80q-84 0 -160.5 14.5t-167.5 41.5z" />
<glyph unicode="4" d="M39 326v168l577 936h293v-936h181v-168h-181v-326h-204v326h-666zM254 494h451v768z" />
<glyph unicode="5" d="M166 23l6 192q63 -37 135 -54.5t162 -17.5q137 0 231 72q102 78 103 211q0 147 -96.5 226t-249.5 79q-86 0 -150.5 -13t-126.5 -40l13 752h786v-168h-594l-12 -383q33 8 78 14t106 6q193 0 328 -127t135 -315q0 -227 -162 -359q-152 -123 -385 -123q-104 0 -179 14.5 t-128 33.5z" />
<glyph unicode="6" d="M106 662q0 338 119 540q147 252 461 252q72 0 165 -14.5t130 -30.5l-29 -182q-113 59 -254 59q-190 0 -299 -156q-100 -143 -100 -364q74 70 150.5 101.5t166.5 31.5q203 0 320 -129q111 -123 111 -321q0 -217 -130.5 -345.5t-328.5 -128.5q-270 0 -389 222 q-92 172 -93 465zM324 444q0 -115 61 -200q72 -100 190 -101q121 0 191 93q63 83 63 208q0 113 -57 193q-68 94 -182 94q-125 0 -195.5 -81t-70.5 -206z" />
<glyph unicode="7" d="M100 1262v168h906v-168l-529 -1262h-225l545 1262h-697z" />
<glyph unicode="8" d="M78 375q0 137 86 237q78 92 217 140q-147 55 -213 157q-55 86 -55 203q0 143 120 240q129 102 342 102q203 0 328 -100q115 -92 115 -221q0 -123 -57.5 -208t-200.5 -161q137 -47 215 -139q86 -100 86 -240q0 -203 -148 -311q-133 -99 -348 -99q-197 0 -334 101 q-154 113 -153 299zM295 387q0 -113 87 -178.5t202 -65.5q111 0 185.5 60t74.5 166q0 129 -99 200q-16 12 -213 107q-82 -57 -161 -113q-76 -70 -76 -176zM317 1083q0 -117 295 -260q121 94 158 152q31 49 31 131q0 92 -82 141q-66 39 -160 39q-86 0 -156 -49 q-86 -60 -86 -154z" />
<glyph unicode="9" d="M92 981q0 217 130 345t329 128q270 0 389 -221q92 -172 92 -465q0 -338 -119 -541q-147 -252 -460 -252q-72 0 -165 14.5t-130 30.5l28 183q113 -59 254 -60q190 0 299 156q100 143 101 365q-74 -70 -151 -102t-167 -32q-203 0 -316.5 126t-113.5 325zM309 985 q0 -113 58 -192q68 -94 182 -95q125 0 195.5 81t70.5 206q0 115 -61 201q-72 100 -191 100q-121 0 -187.5 -88t-66.5 -213z" />
<glyph unicode=":" horiz-adv-x="569" d="M170 0v229h229v-229h-229zM170 815v229h229v-229h-229z" />
<glyph unicode=";" horiz-adv-x="569" d="M41 -272l129 501h229l-174 -501h-184zM170 815v229h229v-229h-229z" />
<glyph unicode="&#x3c;" horiz-adv-x="1228" d="M94 440v156l1041 457v-181l-807 -354l807 -354v-180z" />
<glyph unicode="=" horiz-adv-x="1228" d="M96 213v180h1037v-180h-1037zM96 643v180h1037v-180h-1037z" />
<glyph unicode="&#x3e;" horiz-adv-x="1228" d="M94 -16v180l807 354l-807 354v181l1041 -457v-156z" />
<glyph unicode="?" horiz-adv-x="1024" d="M152 1386q76 33 155.5 50.5t184.5 17.5q180 0 305 -94q137 -104 137 -279q0 -131 -95.5 -255t-185.5 -238q-43 -66 -43 -150v-37h-192v43q0 96 25.5 155.5t101.5 150.5q92 106 112 139q59 92 60 178q0 102 -71 154.5t-177 52.5q-96 0 -173 -21.5t-130 -60.5zM399 0v229 h230v-229h-230z" />
<glyph unicode="@" horiz-adv-x="1638" d="M102 715q0 328 218.5 533.5t531.5 205.5q279 0 477 -168q207 -176 207 -440q0 -260 -184 -430q-152 -139 -301 -140q-49 0 -84 31t-35 84q-49 -47 -110.5 -81t-116.5 -34q-127 0 -215.5 96.5t-88.5 231.5q0 203 119 352q129 162 322 162q74 0 132 -31.5t101 -103.5 l31 107h154l-138 -521q-4 -16 -10 -43.5t-6 -42.5q0 -51 37 -51q92 0 171 115t79 268q0 231 -155 363.5t-388 132.5q-256 0 -418 -172t-162 -428q0 -285 170 -443q162 -150 430 -149q127 0 246 49t199 133h155q-100 -154 -259.5 -240t-348.5 -86q-330 0 -538 193 q-221 203 -222 547zM582 631q0 -82 46 -134.5t122 -52.5q109 0 188 113q74 102 74 221q0 74 -45 123t-113 49q-115 0 -193.5 -102.5t-78.5 -216.5z" />
<glyph unicode="A" horiz-adv-x="1478" d="M25 0l610 1430h215l604 -1430h-223l-146 360h-700l-145 -360h-215zM451 528h569l-285 709z" />
<glyph unicode="B" horiz-adv-x="1251" d="M170 0v1430h387q240 0 363 -80q139 -90 139 -281q0 -141 -80 -227q-72 -76 -215 -113q150 -16 241 -108.5t91 -239.5q0 -213 -162 -305q-133 -76 -383 -76h-381zM375 168h153q162 0 244 43q106 55 107 188q0 150 -119 209q-86 43 -252 43h-133v-483zM375 819h112 q182 0 258 35q109 49 109 195q0 117 -86 170q-70 43 -178 43h-215v-443z" />
<glyph unicode="C" horiz-adv-x="1251" d="M109 721q0 330 211.5 531.5t543.5 201.5q94 0 168 -13t154 -48l-17 -199q-135 80 -295 80q-246 0 -397 -158t-151 -401q0 -248 155.5 -403.5t382.5 -155.5q80 0 170 19.5t142 49.5l12 -198q-74 -31 -156 -41.5t-170 -10.5q-342 0 -547.5 202t-205.5 544z" />
<glyph unicode="D" horiz-adv-x="1478" d="M170 0v1430h422q328 0 541 -187q221 -195 221 -516q0 -354 -201 -540.5t-561 -186.5h-422zM375 180h215q268 0 407.5 133t139.5 406q0 246 -146.5 388t-376.5 142h-239v-1069z" />
<glyph unicode="E" d="M193 0v1430h800v-181h-596v-418h543v-180h-543v-471h596v-180h-800z" />
<glyph unicode="F" horiz-adv-x="1024" d="M170 0v1430h760v-181h-555v-418h530v-180h-530v-651h-205z" />
<glyph unicode="G" horiz-adv-x="1478" d="M109 721q0 330 211.5 531.5t543.5 201.5q139 0 244 -20q63 -13 176 -52l-16 -206q-78 51 -168 74.5t-226 23.5q-244 0 -396 -159t-152 -400q0 -248 155.5 -403.5t382.5 -155.5q90 0 148 8q57 12 82 16v434h-301v168h505v-743q-74 -25 -181 -44.5t-255 -19.5 q-342 0 -547.5 202t-205.5 544z" />
<glyph unicode="H" horiz-adv-x="1478" d="M193 0v1430h204v-599h684v599h205v-1430h-205v651h-684v-651h-204z" />
<glyph unicode="I" horiz-adv-x="569" d="M182 0v1430h205v-1430h-205z" />
<glyph unicode="J" horiz-adv-x="796" d="M43 0v176q18 -6 56 -13t73 -7q131 0 186 73q47 63 48 205v996h204v-1061q0 -172 -84 -273q-100 -121 -317 -121q-100 0 -166 25z" />
<glyph unicode="K" horiz-adv-x="1366" d="M193 0v1430h204v-629l611 629h272l-672 -676l725 -754h-299l-637 700v-700h-204z" />
<glyph unicode="L" horiz-adv-x="1024" d="M180 0v1430h205v-1250h598v-180h-803z" />
<glyph unicode="M" horiz-adv-x="1933" d="M184 0v1430h338l449 -1188l440 1188h338v-1430h-205v1237l-477 -1237h-201l-473 1237l-4 -1237h-205z" />
<glyph unicode="N" horiz-adv-x="1478" d="M180 0v1430h279l631 -1151l4 1151h204v-1430h-262l-647 1176l-4 -1176h-205z" />
<glyph unicode="O" horiz-adv-x="1593" d="M109 715q0 326 180 528q188 211 508 211q317 0 506 -211q182 -205 182 -528q0 -332 -183.5 -536t-504.5 -204q-322 0 -505 203t-183 537zM326 715q0 -236 110 -387q125 -172 361 -172q231 0 358 172q113 154 113 387q0 236 -117 389q-129 170 -354 170t-355 -170 q-116 -153 -116 -389z" />
<glyph unicode="P" d="M170 0v1430h375q246 0 379 -91q157 -105 157 -335q0 -224 -155 -336q-133 -96 -351 -97h-200v-571h-205zM375 752h203q111 0 190 55q96 68 96 197q0 123 -108 190q-90 55 -207 55h-174v-497z" />
<glyph unicode="Q" horiz-adv-x="1593" d="M109 715q0 326 180 528q188 211 508 211q317 0 506 -211q182 -205 182 -528q0 -244 -99.5 -420t-285.5 -258l332 -301h-254l-267 248q-49 -8 -114 -9q-322 0 -505 203t-183 537zM326 715q0 -236 110 -387q125 -172 361 -172q231 0 358 172q113 154 113 387 q0 236 -117 389q-129 170 -354 170t-355 -170q-116 -153 -116 -389z" />
<glyph unicode="R" horiz-adv-x="1251" d="M170 0v1430h350q262 0 383 -64q172 -90 172 -324q0 -127 -82 -215t-213 -110q47 -20 77 -52t63 -96l270 -569h-234l-219 496q-43 94 -102 120q-41 18 -137 19h-123v-635h-205zM375 815h174q145 0 227 59.5t82 163.5q0 98 -73.5 154.5t-213.5 56.5h-196v-434z" />
<glyph unicode="S" horiz-adv-x="1024" d="M96 1065q0 184 129 286.5t330 102.5q72 0 151.5 -12t153.5 -39l-29 -189q-84 33 -138 46.5t-130 13.5q-102 0 -168 -39q-82 -49 -82 -152q0 -111 158 -194q285 -152 297 -162q160 -123 160 -326q0 -217 -154 -327q-135 -98 -368 -99q-66 0 -135.5 15.5t-157.5 44.5 l20 190q61 -27 144 -48t153 -21q104 0 184 53q96 63 97 180q0 129 -158 217q-150 78 -297 156q-160 113 -160 303z" />
<glyph unicode="T" d="M23 1249v181h1093v-181h-444v-1249h-205v1249h-444z" />
<glyph unicode="U" horiz-adv-x="1478" d="M184 592v838h205v-812q0 -219 76 -333q86 -129 274 -129t275 127q76 113 76 335v812h204v-838q0 -299 -144 -458t-411 -159q-266 0 -410.5 159t-144.5 458z" />
<glyph unicode="V" horiz-adv-x="1366" d="M12 1430h230l440 -1250l457 1250h215l-547 -1430h-256z" />
<glyph unicode="W" horiz-adv-x="2048" d="M4 1430h225l342 -1225l310 1225h290l310 -1225l346 1225h217l-440 -1430h-265l-311 1249l-317 -1249h-275z" />
<glyph unicode="X" horiz-adv-x="1366" d="M16 0l527 743l-480 687h246l381 -549l379 549h234l-482 -682l529 -748h-258l-422 606l-408 -606h-246z" />
<glyph unicode="Y" horiz-adv-x="1366" d="M23 1430h239l426 -642l416 642h239l-557 -832v-598h-204v598z" />
<glyph unicode="Z" d="M66 0v184l741 1065h-717v181h952v-185l-739 -1065h752v-180h-989z" />
<glyph unicode="[" horiz-adv-x="681" d="M195 -287v1835h387v-143h-207v-1548h207v-144h-387z" />
<glyph unicode="\" horiz-adv-x="569" d="M-51 1454h180l492 -1479h-181z" />
<glyph unicode="]" horiz-adv-x="681" d="M100 -143h207v1548h-207v143h387v-1835h-387v144z" />
<glyph unicode="^" horiz-adv-x="1228" d="M123 602l407 828h168l408 -828h-184l-308 639l-307 -639h-184z" />
<glyph unicode="_" horiz-adv-x="1024" d="M0 -154h1024v-102h-1024v102z" />
<glyph unicode="`" horiz-adv-x="569" d="M14 1485h224l182 -295h-137z" />
<glyph unicode="a" d="M94 301q0 178 168 270q133 74 318 74q59 0 124.5 -2t79.5 -2q0 139 -55 203q-60 69 -199 69h-4q-80 0 -163 -28.5t-140 -77.5l-10 164q74 45 163 71.5t181 26.5q219 0 319.5 -106.5t100.5 -325.5v-432q0 -86 2 -128t6 -77h-180v135q-49 -63 -115 -102q-96 -57 -213 -58 q-180 0 -276 76q-106 84 -107 250zM299 301q0 -78 63 -127q57 -43 132 -43q139 0 214.5 76t75.5 199v92l-122 4q-131 0 -220 -31q-143 -49 -143 -170z" />
<glyph unicode="b" horiz-adv-x="1251" d="M164 0v1536h192v-635q53 80 129 121q88 47 222 47q217 0 337 -158q113 -145 113 -370q0 -238 -104 -389q-121 -176 -344 -177q-131 0 -230 56q-80 45 -127 116l-4 -147h-184zM356 520q0 -150 72 -260q84 -129 236 -129q141 0 221 135q67 115 67 260q0 162 -63 265 q-75 122 -221 122h-2q-150 0 -234 -122q-76 -111 -76 -271z" />
<glyph unicode="c" horiz-adv-x="909" d="M78 522q0 242 146.5 394.5t385.5 152.5q57 0 125 -12.5t109 -28.5l-17 -160q-109 45 -209 45q-154 0 -244.5 -116.5t-90.5 -274.5q0 -160 79 -266q94 -125 269 -125q51 0 106.5 15.5t100.5 43.5l14 -172q-37 -16 -98.5 -29.5t-143.5 -13.5q-233 0 -382.5 158t-149.5 389z " />
<glyph unicode="d" horiz-adv-x="1251" d="M94 541q0 225 111 368q123 160 340 160q131 0 219 -47q78 -41 127 -121l4 635h192v-1536h-184v147q-49 -68 -131 -114q-102 -57 -229 -58q-221 0 -342 177q-106 156 -107 389zM299 526q0 -145 66 -258q80 -137 223 -137q150 0 235 129q72 109 72 260q0 160 -76 271 q-83 122 -231 122h-2q-145 0 -221 -120q-66 -105 -66 -267z" />
<glyph unicode="e" d="M94 541q0 236 134 382t356 146q246 0 360 -168q100 -147 100 -422h-745q0 -152 100.5 -250t243.5 -98q88 0 183.5 34t138.5 71v-193q-98 -35 -127 -43q-92 -25 -203 -25q-272 0 -406.5 149.5t-134.5 416.5zM299 623h541q0 125 -70 207.5t-190 82.5q-129 0 -205 -94 q-64 -77 -76 -196z" />
<glyph unicode="f" horiz-adv-x="796" d="M43 889v155h246v97q0 209 67 305q82 115 283 115q31 0 65.5 -4.5t63.5 -8.5l-8 -155q-35 12 -92 12q-115 0 -156 -70q-31 -53 -31 -178v-113h277v-155h-277v-889h-192v889h-246z" />
<glyph unicode="g" horiz-adv-x="1251" d="M94 514q0 221 115 379q129 176 352 176q135 0 217 -46t127 -134l4 155h178v-999q0 -246 -126 -369q-135 -131 -412 -131q-86 0 -169 15.5t-206 56.5l21 178q113 -51 195.5 -72.5t180.5 -21.5q152 0 238 96.5t86 261.5v103q-61 -78 -156.5 -120t-197.5 -42 q-213 0 -336 156q-111 141 -111 358zM299 524q0 -154 80 -261t211 -107t218 103t87 251q0 172 -76 283q-81 120 -227 120h-2q-135 0 -217 -127q-74 -115 -74 -262z" />
<glyph unicode="h" horiz-adv-x="1251" d="M164 0v1536h192v-641q117 174 340 174q199 0 295 -115.5t96 -332.5v-621h-192v541q0 193 -49 282.5t-172 89.5q-158 0 -238 -116.5t-80 -313.5v-483h-192z" />
<glyph unicode="i" horiz-adv-x="569" d="M176 1278v217h217v-217h-217zM188 0v1044h193v-1044h-193z" />
<glyph unicode="j" horiz-adv-x="569" d="M-33 -446l6 165q37 -6 78 -6q66 0 101.5 58.5t35.5 162.5v1110h193v-1081q0 -176 -39 -264q-68 -154 -256 -154q-33 0 -60.5 1.5t-58.5 7.5zM176 1278v217h217v-217h-217z" />
<glyph unicode="k" d="M164 0v1536h192v-915l420 423h262l-485 -462l547 -582h-277l-467 537v-537h-192z" />
<glyph unicode="l" horiz-adv-x="569" d="M188 0v1536h193v-1536h-193z" />
<glyph unicode="m" horiz-adv-x="1820" d="M162 0v1044h180v-151q113 176 336 176q96 0 176 -50t121 -153q49 102 153 158q84 45 170 45q188 0 281 -115q82 -102 82 -284v-670h-193v623q0 119 -34 192q-47 98 -152 98q-137 0 -211 -120q-63 -104 -63 -267v-526h-193v623q0 119 -35 192q-47 98 -151 98 q-137 0 -211 -120q-63 -104 -64 -267v-526h-192z" />
<glyph unicode="n" horiz-adv-x="1251" d="M164 0v1044h186v-165q45 88 140.5 139t205.5 51q199 0 295 -115.5t96 -332.5v-621h-192v541q0 193 -49 282.5t-172 89.5q-158 0 -238 -116.5t-80 -313.5v-483h-192z" />
<glyph unicode="o" horiz-adv-x="1251" d="M94 522q0 242 146.5 394.5t386.5 152.5q238 0 384 -152.5t146 -394.5q0 -229 -149.5 -388t-380.5 -159q-233 0 -383 158t-150 389zM299 522q0 -158 78 -266q88 -125 250 -125q158 0 247 125q78 109 78 266q0 158 -86 271q-91 120 -237 120h-2q-150 0 -239 -115.5 t-89 -275.5z" />
<glyph unicode="p" horiz-adv-x="1251" d="M164 -430v1474h184v-147q49 70 129 115q102 57 230 57q217 0 337 -158q113 -145 113 -370q0 -238 -104 -389q-121 -176 -344 -177q-133 0 -216 44t-133 124l-4 -573h-192zM356 520q0 -150 72 -260q84 -129 236 -129q141 0 221 135q67 115 67 260q0 162 -63 265 q-75 122 -221 122h-2q-150 0 -234 -122q-76 -111 -76 -271z" />
<glyph unicode="q" horiz-adv-x="1251" d="M94 541q0 225 111 368q123 160 340 160q125 0 227 -57q82 -45 127 -117l4 149h184v-1474h-192v567q-47 -74 -142.5 -118t-209.5 -44q-221 0 -342 177q-106 156 -107 389zM299 526q0 -145 66 -258q80 -137 223 -137q150 0 235 129q72 109 72 260q0 160 -76 271 q-83 122 -231 122h-2q-145 0 -221 -120q-66 -105 -66 -267z" />
<glyph unicode="r" horiz-adv-x="796" d="M164 0v1044h180v-161q41 82 118 134t159 52q37 0 61.5 -3t65.5 -11v-172q-25 10 -52.5 14t-54.5 4q-129 0 -207 -114.5t-78 -311.5v-475h-192z" />
<glyph unicode="s" horiz-adv-x="796" d="M70 748q0 156 103 238.5t265 82.5q61 0 118.5 -11t121.5 -30l-16 -168q-31 18 -97.5 35.5t-105.5 17.5q-80 0 -132.5 -32.5t-52.5 -94.5q0 -84 113 -143t223 -115q117 -84 117 -227q0 -158 -113 -246q-100 -80 -252 -80q-86 0 -154.5 11.5t-131.5 46.5l10 172 q53 -35 123 -54.5t117 -19.5q80 0 131 31q66 39 65 119q0 82 -226 194.5t-226 272.5z" />
<glyph unicode="t" horiz-adv-x="796" d="M14 889v155h236v242l192 62v-304h277v-155h-277v-572q0 -88 45 -137t117 -49q43 0 73 9.5t58 27.5v-164q-41 -12 -82 -20.5t-82 -8.5q-156 0 -238.5 74t-82.5 230v610h-236z" />
<glyph unicode="u" horiz-adv-x="1251" d="M164 424v620h192v-540q0 -193 49.5 -283t172.5 -90q158 0 237.5 117t79.5 313v483h192v-1044h-186v166q-45 -88 -140 -139.5t-206 -51.5q-199 0 -295 116t-96 333z" />
<glyph unicode="v" horiz-adv-x="1024" d="M23 1044h210l283 -851l293 851h192l-374 -1044h-230z" />
<glyph unicode="w" horiz-adv-x="1705" d="M25 1044h211l239 -864l270 864h228l262 -864l258 864h188l-335 -1044h-224l-270 877l-268 -877h-224z" />
<glyph unicode="x" horiz-adv-x="1024" d="M20 0l377 547l-340 497h240l227 -372l232 372h215l-336 -497l369 -547h-238l-258 410l-258 -410h-230z" />
<glyph unicode="y" horiz-adv-x="1024" d="M14 1044h211l281 -864l291 864h194l-385 -1067q-57 -164 -90 -223q-111 -209 -311 -209q-37 0 -52.5 2.5t-78.5 12.5l12 157q4 -2 34 -9t56 -7q84 0 148 76q82 98 82 182q0 16 -12.5 48t-24.5 63z" />
<glyph unicode="z" horiz-adv-x="1024" d="M88 0v168l602 721h-573v155h796v-167l-602 -721h625v-156h-848z" />
<glyph unicode="{" horiz-adv-x="681" d="M76 559v143q68 0 122 56.5t54 148.5v383q0 119 78 193q70 66 153 65h160v-143h-108q-57 0 -80 -45t-23 -111v-370q0 -117 -74 -187q-51 -47 -114 -59q66 -12 112 -58q76 -72 76 -198v-365q0 -70 21.5 -112.5t81.5 -42.5h108v-144h-160q-82 0 -151 66q-80 76 -80 192v373 q0 98 -54.5 156.5t-121.5 58.5z" />
<glyph unicode="|" horiz-adv-x="454" d="M137 -512v2048h180v-2048h-180z" />
<glyph unicode="}" horiz-adv-x="681" d="M39 -143h108q57 0 80 45t23 110v371q0 117 74 186q51 47 114 60q-66 12 -112 57q-76 72 -76 199v364q0 70 -19 107q-25 49 -84 49h-108v143h160q82 0 151 -65q80 -76 80 -193v-372q0 -98 57 -160q51 -55 119 -56v-143q-68 0 -122 -56.5t-54 -148.5v-383q0 -119 -78 -192 q-70 -66 -153 -66h-160v144z" />
<glyph unicode="~" horiz-adv-x="1228" d="M141 498q41 78 92 118q70 55 164 56q49 0 104.5 -16.5t123.5 -47.5q55 -25 115.5 -50.5t93.5 -25.5q53 0 102 48q29 28 78 102l73 -143q-41 -78 -92 -119q-70 -55 -164 -55q-49 0 -104 16t-117.5 44t-122 53.5t-92.5 25.5q-53 0 -102 -47q-29 -29 -78 -103z" />
<glyph unicode="&#xa1;" horiz-adv-x="796" d="M285 -385l26 1028h176l27 -1028h-229zM285 815v229h229v-229h-229z" />
<glyph unicode="&#xa2;" d="M182 522q0 242 146.5 394.5t386.5 152.5l28 -2l68 231h117l-72 -243q29 -6 51.5 -12.5t40.5 -14.5l-16 -160q-61 27 -119 35l-215 -747q68 -25 137 -25q51 0 106.5 15.5t100.5 43.5l14 -172q-37 -16 -98 -29.5t-143 -13.5q-88 0 -162 25l-80 -272h-117l93 319 q-127 72 -197 197t-70 278zM387 522q0 -90 27 -166t86 -133l198 688q-143 0 -231 -123q-80 -111 -80 -266z" />
<glyph unicode="&#xa3;" d="M121 0v180h186v533h-162v118h162v115q0 229 125 365q133 143 371 143q78 0 129 -9t112 -30l-16 -190q-47 20 -98 34.5t-107 14.5q-154 0 -232.5 -91t-78.5 -251v-101h330v-118h-330v-533h506v-180h-897z" />
<glyph unicode="&#xa4;" d="M49 299l115 117q-102 121 -103 299q0 92 24 167.5t79 135.5l-115 110l105 107l112 -113q57 47 138 74t165 27q178 0 308 -101l110 113l103 -107l-111 -110q49 -55 73.5 -134t24.5 -169q0 -182 -98 -299l111 -117l-103 -104l-110 116q-121 -104 -308 -104q-186 0 -303 104 l-112 -116zM242 715q0 -139 96 -239.5t231 -100.5q137 0 232.5 101.5t95.5 238.5t-95 238.5t-233 101.5q-135 0 -231 -100.5t-96 -239.5z" />
<glyph unicode="&#xa5;" d="M12 1430h228l335 -642l324 642h227l-370 -680h207v-119h-273l-16 -33v-147h289v-119h-289v-332h-205v332h-289v119h289v147l-16 33h-273v119h207z" />
<glyph unicode="&#xa6;" horiz-adv-x="454" d="M137 358h180v-716h-180v716zM137 666v716h180v-716h-180z" />
<glyph unicode="&#xa7;" d="M172 625q0 164 150 254q-141 78 -142 243q0 158 139 250q125 82 291 82q70 0 143.5 -10t151.5 -29l-18 -186q-57 25 -125 41t-125 16q-100 0 -168 -29q-96 -41 -96 -127q0 -96 159 -161q147 -59 295 -119q162 -92 162 -252q0 -86 -39 -147q-31 -47 -106 -111 q63 -41 97 -100.5t34 -133.5q0 -180 -156 -278q-129 -82 -307 -82q-88 0 -168 11t-162 40l19 189q72 -37 156.5 -54.5t181.5 -17.5q100 0 166 43q78 51 77 143q0 84 -157 146q-268 104 -293 119q-160 94 -160 260zM352 664q0 -117 213 -197q84 -31 170 -61q39 45 51 67 q23 41 23 86q0 106 -147 174l-234 90q-76 -57 -76 -159z" />
<glyph unicode="&#xa8;" horiz-adv-x="569" d="M20 1204v205h193v-205h-193zM356 1204v205h193v-205h-193z" />
<glyph unicode="&#xa9;" horiz-adv-x="1638" d="M80 715q0 305 217 522t522 217t522.5 -217t217.5 -522t-217.5 -522.5t-522.5 -217.5t-522 217.5t-217 522.5zM260 715q0 -256 162 -426t397 -170q233 0 396 170t163 426t-161.5 426t-397.5 170q-233 0 -396 -170t-163 -426zM418 715q0 197 110.5 321.5t302.5 124.5 q141 0 240.5 -81t120.5 -226h-150q-14 74 -71.5 119t-136.5 45q-125 0 -193 -83t-68 -216q0 -137 71 -224t194 -87q86 0 140 45t64 131h150q-25 -150 -122 -235t-232 -85q-188 0 -304 128t-116 323z" />
<glyph unicode="&#xaa;" horiz-adv-x="739" d="M47 991q0 115 127 170q94 41 217 41h60.5t64.5 -4q0 78 -42 107.5t-118 29.5q-68 0 -118 -14t-103 -53l-6 129q113 57 240 57q158 0 229 -49q86 -59 86 -211v-262q0 -33 3 -73t3 -48h-172v78q-35 -51 -87 -72.5t-118 -21.5q-100 0 -170 39q-96 53 -96 157zM215 985 q0 -33 37 -52.5t84 -19.5q90 0 135 28t45 95v56l-82 4q-86 0 -139 -19q-80 -27 -80 -92z" />
<glyph unicode="&#xab;" d="M104 551l293 414h181l-267 -414l267 -414h-181zM518 551l293 414h180l-266 -414l266 -414h-180z" />
<glyph unicode="&#xac;" horiz-adv-x="1228" d="M96 643v180h1037v-610h-181v430h-856z" />
<glyph unicode="&#xad;" horiz-adv-x="1228" d="M96 428v180h1037v-180h-1037z" />
<glyph unicode="&#xae;" horiz-adv-x="1638" d="M80 715q0 305 217 522t522 217t522.5 -217t217.5 -522t-217.5 -522.5t-522.5 -217.5t-522 217.5t-217 522.5zM260 715q0 -256 161.5 -426t397.5 -170q233 0 396 170t163 426t-161.5 426t-397.5 170q-233 0 -396 -170t-163 -426zM535 299v838h311q156 0 232.5 -57.5 t76.5 -188.5q0 -106 -56.5 -160.5t-162.5 -64.5l225 -367h-160l-217 360h-94v-360h-155zM690 778h137q86 0 121 19q51 27 51 106q0 66 -55 94q-41 20 -115 21h-139v-240z" />
<glyph unicode="&#xaf;" horiz-adv-x="569" d="M-18 1260v118h606v-118h-606z" />
<glyph unicode="&#xb0;" horiz-adv-x="819" d="M117 1161q0 121 86 207t207 86t206.5 -86t85.5 -207t-86 -207t-206 -86q-121 0 -207 86t-86 207zM248 1161q0 -68 47 -115t115 -47t114.5 47.5t46.5 114.5q0 68 -47 115t-114 47q-68 0 -115 -47t-47 -115z" />
<glyph unicode="&#xb1;" horiz-adv-x="1228" d="M96 0v180h1037v-180h-1037zM96 555v180h428v301h181v-301h428v-180h-428v-301h-181v301h-428z" />
<glyph unicode="&#xb2;" horiz-adv-x="739" d="M63 578v155q221 184 240 201q178 168 178 264q0 55 -51 84t-113 29q-115 0 -213 -60l-12 152q121 51 256 51q133 0 215 -55q98 -66 99 -193q0 -113 -160 -284q-135 -147 -234 -197l408 -4v-143h-613z" />
<glyph unicode="&#xb3;" horiz-adv-x="739" d="M66 598l20 156q16 -16 74.5 -30.5t118.5 -14.5q80 0 137 20q80 29 80 88q0 66 -64.5 101.5t-140.5 35.5h-101v144h95q70 0 129 26q74 33 73 90q0 51 -57 74t-125 23q-57 0 -100 -10.5t-99 -34.5l-8 147q47 16 116 28.5t136 12.5q133 0 219 -53q98 -61 99 -178 q0 -80 -64 -133q-55 -45 -141 -62q94 -16 153.5 -71.5t59.5 -147.5q0 -139 -123 -199q-92 -45 -256 -45q-61 0 -120.5 9.5t-110.5 23.5z" />
<glyph unicode="&#xb4;" horiz-adv-x="569" d="M150 1190l182 295h223l-268 -295h-137z" />
<glyph unicode="&#xb5;" horiz-adv-x="1251" d="M164 -430v1474h192v-540q0 -193 49.5 -283t172.5 -90q158 0 237.5 117t79.5 313v483h192v-1044h-186v166q-45 -88 -140 -139.5t-206 -51.5q-66 0 -111 8.5t-88 32.5v-446h-192z" />
<glyph unicode="&#xb6;" horiz-adv-x="1228" d="M41 1049q0 201 133 294q121 86 350 87h555v-1659h-180v1515h-235v-1515h-181v911q-203 0 -322.5 101.5t-119.5 265.5z" />
<glyph unicode="&#xb7;" horiz-adv-x="569" d="M164 623q0 49 37 83.5t86 34.5t84 -34.5t35 -83.5t-35 -86t-84 -37t-86 37t-37 86z" />
<glyph unicode="&#xb8;" horiz-adv-x="569" d="M207 -412l37 70q37 -14 47 -18q37 -12 86 -13q47 0 76 19q39 25 39 75q0 37 -28 58.5t-67 21.5q-27 0 -42 -3t-42 -13l-34 39l131 176h96l-94 -123l4 -4q27 10 61 10q72 0 121 -41t49 -108q0 -94 -88 -146q-74 -43 -180 -43q-94 0 -172 43z" />
<glyph unicode="&#xb9;" horiz-adv-x="739" d="M102 1268l228 174h166v-864h-181v708l-143 -112z" />
<glyph unicode="&#xba;" horiz-adv-x="813" d="M53 1124q0 145 96.5 237.5t256.5 92.5t256 -92t96 -238q0 -137 -98 -233t-254 -96t-254.5 94t-98.5 235zM221 1124q0 -92 39 -145q47 -66 146 -66q100 0 145 64q39 53 39 147q0 92 -43 148q-49 63 -141 63q-90 0 -137.5 -59.5t-47.5 -151.5z" />
<glyph unicode="&#xbb;" d="M147 137l267 414l-267 414h181l293 -414l-293 -414h-181zM561 137l266 414l-266 414h180l293 -414l-293 -414h-180z" />
<glyph unicode="&#xbc;" horiz-adv-x="1708" d="M68 1268l227 174h166v-864h-180v708l-144 -112zM293 -45l887 1520h147l-887 -1520h-147zM920 170v125l376 569h238v-551h106v-143h-106v-170h-180v170h-434zM1087 313h267v408z" />
<glyph unicode="&#xbd;" horiz-adv-x="1708" d="M68 1268l227 174h166v-864h-180v708l-144 -112zM229 -45l887 1520h148l-887 -1520h-148zM1028 0v156q221 184 240 200q178 168 178 265q0 55 -51.5 83.5t-112.5 28.5q-115 0 -213 -59l-12 151q121 51 256 52q133 0 215 -56q98 -66 98 -192q0 -113 -160 -285 q-135 -147 -233 -197l407 -4v-143h-612z" />
<glyph unicode="&#xbe;" horiz-adv-x="1708" d="M66 598l20 156q16 -16 74.5 -30.5t118.5 -14.5q80 0 137 20q80 29 80 88q0 66 -64.5 101.5t-140.5 35.5h-101v144h95q70 0 129 26q74 33 73 90q0 51 -57 74t-125 23q-57 0 -100 -10.5t-99 -34.5l-8 147q47 16 116 28.5t136 12.5q133 0 219 -53q98 -61 99 -178 q0 -80 -64 -133q-55 -45 -141 -62q94 -16 153.5 -71.5t59.5 -147.5q0 -139 -123 -199q-92 -45 -256 -45q-61 0 -120.5 9.5t-110.5 23.5zM381 -45l887 1520h147l-887 -1520h-147zM920 170v125l376 569h238v-551h106v-143h-106v-170h-180v170h-434zM1087 313h267v408z" />
<glyph unicode="&#xbf;" horiz-adv-x="1024" d="M90 -37q0 131 98 264q90 115 183 230q43 66 43 149v37h192v-43q0 -96 -25.5 -155.5t-101.5 -149.5q-92 -106 -112 -139q-59 -92 -60 -179q0 -102 76 -157q66 -49 172 -49q96 0 173 21.5t130 60.5l14 -195q-76 -33 -155.5 -50.5t-184.5 -17.5q-180 0 -305 95 q-137 104 -137 278zM395 815v229h230v-229h-230z" />
<glyph unicode="&#xc0;" horiz-adv-x="1478" d="M25 0l610 1430h215l604 -1430h-223l-146 360h-700l-145 -360h-215zM451 528h569l-285 709zM469 1829h224l182 -295h-137z" />
<glyph unicode="&#xc1;" horiz-adv-x="1478" d="M25 0l610 1430h215l604 -1430h-223l-146 360h-700l-145 -360h-215zM451 528h569l-285 709zM605 1534l182 295h223l-268 -295h-137z" />
<glyph unicode="&#xc2;" horiz-adv-x="1478" d="M25 0l610 1430h215l604 -1430h-223l-146 360h-700l-145 -360h-215zM443 1534l202 295h187l205 -295h-164l-135 201l-133 -201h-162zM451 528h569l-285 709z" />
<glyph unicode="&#xc3;" horiz-adv-x="1478" d="M25 0l610 1430h215l604 -1430h-223l-146 360h-700l-145 -360h-215zM392 1544q12 92 47 148q51 82 145 82q49 0 123 -29q168 -66 192 -66q43 0 65.5 27t29.5 68h94q-12 -92 -47 -148q-51 -82 -146 -82q-49 0 -123 29q-168 66 -192 65q-43 0 -65.5 -26.5t-28.5 -67.5h-94z M451 528h569l-285 709z" />
<glyph unicode="&#xc4;" horiz-adv-x="1478" d="M25 0l610 1430h215l604 -1430h-223l-146 360h-700l-145 -360h-215zM451 528h569l-285 709zM475 1548v205h193v-205h-193zM811 1548v205h193v-205h-193z" />
<glyph unicode="&#xc5;" horiz-adv-x="1478" d="M25 0l610 1430h215l604 -1430h-223l-146 360h-700l-145 -360h-215zM451 528h569l-285 709zM531 1706q0 86 61.5 147.5t147.5 61.5t147.5 -61.5t61.5 -147.5t-61.5 -147.5t-147.5 -61.5t-147.5 61.5t-61.5 147.5zM613 1706q0 -51 37.5 -89t89.5 -38q49 0 88 39t39 88 q0 51 -38 89t-89 38t-89 -38t-38 -89z" />
<glyph unicode="&#xc6;" horiz-adv-x="1933" d="M4 0l864 1430h899v-181h-567l27 -418h504v-180h-494l29 -471h522v-180h-711l-22 360h-609l-215 -360h-227zM545 528h499l-45 758z" />
<glyph unicode="&#xc7;" horiz-adv-x="1251" d="M109 721q0 330 211.5 531.5t543.5 201.5q94 0 168 -13t154 -48l-17 -199q-135 80 -295 80q-246 0 -397 -158t-151 -401q0 -248 155.5 -403.5t382.5 -155.5q80 0 170 19.5t142 49.5l12 -198q-74 -31 -156 -41.5t-170 -10.5q-31 0 -47 5l-78 -103l4 -4q27 10 62 10 q72 0 121 -41t49 -108q0 -94 -88 -146q-74 -43 -180 -43q-94 0 -173 43l37 70q37 -14 47 -18q37 -12 86 -13q47 0 76 19q39 25 39 75q0 37 -27.5 58.5t-66.5 21.5q-27 0 -42 -3t-42 -13l-35 39l119 162q-285 43 -449.5 237.5t-164.5 497.5z" />
<glyph unicode="&#xc8;" d="M193 0v1430h800v-181h-596v-418h543v-180h-543v-471h596v-180h-800zM299 1829h224l182 -295h-137z" />
<glyph unicode="&#xc9;" d="M193 0v1430h800v-181h-596v-418h543v-180h-543v-471h596v-180h-800zM435 1534l182 295h223l-268 -295h-137z" />
<glyph unicode="&#xca;" d="M193 0v1430h800v-181h-596v-418h543v-180h-543v-471h596v-180h-800zM273 1534l202 295h187l205 -295h-164l-135 201l-133 -201h-162z" />
<glyph unicode="&#xcb;" d="M193 0v1430h800v-181h-596v-418h543v-180h-543v-471h596v-180h-800zM305 1548v205h193v-205h-193zM641 1548v205h193v-205h-193z" />
<glyph unicode="&#xcc;" horiz-adv-x="569" d="M14 1829h224l182 -295h-137zM182 0v1430h205v-1430h-205z" />
<glyph unicode="&#xcd;" horiz-adv-x="569" d="M150 1534l182 295h223l-268 -295h-137zM182 0v1430h205v-1430h-205z" />
<glyph unicode="&#xce;" horiz-adv-x="569" d="M-12 1534l202 295h187l205 -295h-164l-135 201l-133 -201h-162zM182 0v1430h205v-1430h-205z" />
<glyph unicode="&#xcf;" horiz-adv-x="569" d="M20 1548v205h193v-205h-193zM182 0v1430h205v-1430h-205zM356 1548v205h193v-205h-193z" />
<glyph unicode="&#xd0;" horiz-adv-x="1478" d="M31 700v131h139v599h422q328 0 541 -187q221 -195 221 -516q0 -354 -201 -540.5t-561 -186.5h-422v700h-139zM375 180h215q268 0 407.5 133t139.5 406q0 233 -144.5 381.5t-382.5 148.5h-235v-418h375v-131h-375v-520z" />
<glyph unicode="&#xd1;" horiz-adv-x="1478" d="M180 0v1430h279l631 -1151l4 1151h204v-1430h-262l-647 1176l-4 -1176h-205zM392 1544q12 92 47 148q51 82 145 82q49 0 123 -29q168 -66 192 -66q43 0 65.5 27t29.5 68h94q-12 -92 -47 -148q-51 -82 -146 -82q-49 0 -123 29q-168 66 -192 65q-43 0 -65.5 -26.5 t-28.5 -67.5h-94z" />
<glyph unicode="&#xd2;" horiz-adv-x="1593" d="M109 715q0 326 180 528q188 211 508 211q317 0 506 -211q182 -205 182 -528q0 -332 -183.5 -536t-504.5 -204q-322 0 -505 203t-183 537zM326 715q0 -236 110 -387q125 -172 361 -172q231 0 358 172q113 154 113 387q0 236 -117 389q-129 170 -354 170t-355 -170 q-116 -153 -116 -389zM526 1829h224l182 -295h-137z" />
<glyph unicode="&#xd3;" horiz-adv-x="1593" d="M109 715q0 326 180 528q188 211 508 211q317 0 506 -211q182 -205 182 -528q0 -332 -183.5 -536t-504.5 -204q-322 0 -505 203t-183 537zM326 715q0 -236 110 -387q125 -172 361 -172q231 0 358 172q113 154 113 387q0 236 -117 389q-129 170 -354 170t-355 -170 q-116 -153 -116 -389zM662 1534l182 295h223l-268 -295h-137z" />
<glyph unicode="&#xd4;" horiz-adv-x="1593" d="M109 715q0 326 180 528q188 211 508 211q317 0 506 -211q182 -205 182 -528q0 -332 -183.5 -536t-504.5 -204q-322 0 -505 203t-183 537zM326 715q0 -236 110 -387q125 -172 361 -172q231 0 358 172q113 154 113 387q0 236 -117 389q-129 170 -354 170t-355 -170 q-116 -153 -116 -389zM500 1534l202 295h187l205 -295h-164l-135 201l-133 -201h-162z" />
<glyph unicode="&#xd5;" horiz-adv-x="1593" d="M109 715q0 326 180 528q188 211 508 211q317 0 506 -211q182 -205 182 -528q0 -332 -183.5 -536t-504.5 -204q-322 0 -505 203t-183 537zM326 715q0 -236 110 -387q125 -172 361 -172q231 0 358 172q113 154 113 387q0 236 -117 389q-129 170 -354 170t-355 -170 q-116 -153 -116 -389zM449 1544q12 92 47 148q51 82 145 82q49 0 123 -29q168 -66 192 -66q43 0 65.5 27t29.5 68h94q-12 -92 -47 -148q-51 -82 -146 -82q-49 0 -123 29q-168 66 -192 65q-43 0 -65.5 -26.5t-28.5 -67.5h-94z" />
<glyph unicode="&#xd6;" horiz-adv-x="1593" d="M109 715q0 326 180 528q188 211 508 211q317 0 506 -211q182 -205 182 -528q0 -332 -183.5 -536t-504.5 -204q-322 0 -505 203t-183 537zM326 715q0 -236 110 -387q125 -172 361 -172q231 0 358 172q113 154 113 387q0 236 -117 389q-129 170 -354 170t-355 -170 q-116 -153 -116 -389zM532 1548v205h193v-205h-193zM868 1548v205h193v-205h-193z" />
<glyph unicode="&#xd7;" horiz-adv-x="1228" d="M139 170l348 348l-348 348l127 127l348 -350l349 350l127 -127l-351 -348l351 -348l-127 -127l-349 350l-348 -350z" />
<glyph unicode="&#xd8;" horiz-adv-x="1593" d="M109 715q0 326 180 528q188 211 508 211q123 0 224 -31.5t189 -95.5l109 141l74 -57l-111 -145q203 -207 203 -551q0 -332 -183.5 -536t-504.5 -204q-248 0 -416 125l-111 -143l-77 53l116 152q-201 201 -200 553zM326 715q0 -111 27.5 -210t84.5 -177l652 843 q-59 51 -130 77t-163 26q-225 0 -355 -170q-117 -154 -116 -389zM504 258q57 -51 129 -76.5t164 -25.5q231 0 358 172q113 154 113 387q0 229 -115 385z" />
<glyph unicode="&#xd9;" horiz-adv-x="1478" d="M184 592v838h205v-812q0 -219 76 -333q86 -129 274 -129t275 127q76 113 76 335v812h204v-838q0 -299 -144 -458t-411 -159q-266 0 -410.5 159t-144.5 458zM469 1829h224l182 -295h-137z" />
<glyph unicode="&#xda;" horiz-adv-x="1478" d="M184 592v838h205v-812q0 -219 76 -333q86 -129 274 -129t275 127q76 113 76 335v812h204v-838q0 -299 -144 -458t-411 -159q-266 0 -410.5 159t-144.5 458zM605 1534l182 295h223l-268 -295h-137z" />
<glyph unicode="&#xdb;" horiz-adv-x="1478" d="M184 592v838h205v-812q0 -219 76 -333q86 -129 274 -129t275 127q76 113 76 335v812h204v-838q0 -299 -144 -458t-411 -159q-266 0 -410.5 159t-144.5 458zM443 1534l202 295h187l205 -295h-164l-135 201l-133 -201h-162z" />
<glyph unicode="&#xdc;" horiz-adv-x="1478" d="M184 592v838h205v-812q0 -219 76 -333q86 -129 274 -129t275 127q76 113 76 335v812h204v-838q0 -299 -144 -458t-411 -159q-266 0 -410.5 159t-144.5 458zM475 1548v205h193v-205h-193zM811 1548v205h193v-205h-193z" />
<glyph unicode="&#xdd;" horiz-adv-x="1366" d="M23 1430h239l426 -642l416 642h239l-557 -832v-598h-204v598zM549 1534l182 295h223l-268 -295h-137z" />
<glyph unicode="&#xde;" d="M170 0v1430h205v-209h170q246 0 379 -91q158 -106 157 -337q0 -221 -155 -334q-133 -96 -351 -97h-200v-362h-205zM375 543h203q111 0 190 55q96 68 96 197q0 123 -108 190q-90 55 -207 55h-174v-497z" />
<glyph unicode="&#xdf;" horiz-adv-x="1251" d="M164 0v971q0 291 112 434q121 156 390 156q164 0 280 -99q135 -113 135 -303q0 -260 -239 -334q139 -18 225 -133q80 -106 80 -248q0 -199 -117 -323q-123 -133 -336 -133q-100 0 -198 28v162q80 -35 161 -35q123 0 204 77t81 216q0 166 -106 236q-92 59 -279 59v156 q158 0 231 53q88 63 89 213q0 102 -60 174q-66 78 -170 78q-158 0 -231 -131q-59 -106 -60 -273v-1001h-192z" />
<glyph unicode="&#xe0;" d="M94 301q0 178 168 270q133 74 318 74q59 0 124.5 -2t79.5 -2q0 139 -55 203q-61 70 -203 69q-80 0 -163 -28.5t-140 -77.5l-10 164q74 45 163 71.5t181 26.5q219 0 319.5 -106.5t100.5 -325.5v-432q0 -86 2 -128t6 -77h-180v135q-49 -63 -115 -102q-96 -57 -213 -58 q-180 0 -276 76q-106 84 -107 250zM299 301q0 -78 63 -127q57 -43 132 -43q139 0 214.5 76t75.5 199v92l-122 4q-131 0 -220 -31q-143 -49 -143 -170zM299 1485h224l182 -295h-137z" />
<glyph unicode="&#xe1;" d="M94 301q0 178 168 270q133 74 318 74q59 0 124.5 -2t79.5 -2q0 139 -55 203q-61 70 -203 69q-80 0 -163 -28.5t-140 -77.5l-10 164q74 45 163 71.5t181 26.5q219 0 319.5 -106.5t100.5 -325.5v-432q0 -86 2 -128t6 -77h-180v135q-49 -63 -115 -102q-96 -57 -213 -58 q-180 0 -276 76q-106 84 -107 250zM299 301q0 -78 63 -127q57 -43 132 -43q139 0 214.5 76t75.5 199v92l-122 4q-131 0 -220 -31q-143 -49 -143 -170zM435 1190l182 295h223l-268 -295h-137z" />
<glyph unicode="&#xe2;" d="M94 301q0 178 168 270q133 74 318 74q59 0 124.5 -2t79.5 -2q0 139 -55 203q-61 70 -203 69q-80 0 -163 -28.5t-140 -77.5l-10 164q74 45 163 71.5t181 26.5q219 0 319.5 -106.5t100.5 -325.5v-432q0 -86 2 -128t6 -77h-180v135q-49 -63 -115 -102q-96 -57 -213 -58 q-180 0 -276 76q-106 84 -107 250zM273 1190l202 295h187l205 -295h-164l-135 201l-133 -201h-162zM299 301q0 -78 63 -127q57 -43 132 -43q139 0 214.5 76t75.5 199v92l-122 4q-131 0 -220 -31q-143 -49 -143 -170z" />
<glyph unicode="&#xe3;" d="M94 301q0 178 168 270q133 74 318 74q59 0 124.5 -2t79.5 -2q0 139 -55 203q-61 70 -203 69q-80 0 -163 -28.5t-140 -77.5l-10 164q74 45 163 71.5t181 26.5q219 0 319.5 -106.5t100.5 -325.5v-432q0 -86 2 -128t6 -77h-180v135q-49 -63 -115 -102q-96 -57 -213 -58 q-180 0 -276 76q-106 84 -107 250zM222 1200q12 92 47 148q51 82 145 82q49 0 123 -29q168 -66 192 -66q43 0 65.5 27t29.5 68h94q-12 -92 -47 -148q-51 -82 -146 -82q-49 0 -123 29q-168 66 -192 65q-43 0 -65.5 -26.5t-28.5 -67.5h-94zM299 301q0 -78 63 -127 q57 -43 132 -43q139 0 214.5 76t75.5 199v92l-122 4q-131 0 -220 -31q-143 -49 -143 -170z" />
<glyph unicode="&#xe4;" d="M94 301q0 178 168 270q133 74 318 74q59 0 124.5 -2t79.5 -2q0 139 -55 203q-61 70 -203 69q-80 0 -163 -28.5t-140 -77.5l-10 164q74 45 163 71.5t181 26.5q219 0 319.5 -106.5t100.5 -325.5v-432q0 -86 2 -128t6 -77h-180v135q-49 -63 -115 -102q-96 -57 -213 -58 q-180 0 -276 76q-106 84 -107 250zM299 301q0 -78 63 -127q57 -43 132 -43q139 0 214.5 76t75.5 199v92l-122 4q-131 0 -220 -31q-143 -49 -143 -170zM305 1204v205h193v-205h-193zM641 1204v205h193v-205h-193z" />
<glyph unicode="&#xe5;" d="M94 301q0 178 168 270q133 74 318 74q59 0 124.5 -2t79.5 -2q0 139 -55 203q-61 70 -203 69q-80 0 -163 -28.5t-140 -77.5l-10 164q74 45 163 71.5t181 26.5q219 0 319.5 -106.5t100.5 -325.5v-432q0 -86 2 -128t6 -77h-180v135q-49 -63 -115 -102q-96 -57 -213 -58 q-180 0 -276 76q-106 84 -107 250zM299 301q0 -78 63 -127q57 -43 132 -43q139 0 214.5 76t75.5 199v92l-122 4q-131 0 -220 -31q-143 -49 -143 -170zM361 1362q0 86 61.5 147.5t147.5 61.5t147.5 -61.5t61.5 -147.5t-61.5 -147.5t-147.5 -61.5t-147.5 61.5t-61.5 147.5z M443 1362q0 -51 37.5 -89t89.5 -38q49 0 88 39t39 88q0 51 -38 89t-89 38t-89 -38t-38 -89z" />
<glyph unicode="&#xe6;" horiz-adv-x="1820" d="M84 309q0 190 184 277q129 59 320 59q74 0 125 -4t92 -6q0 143 -86 215q-76 63 -209 63q-72 0 -148.5 -29.5t-142.5 -76.5l-10 162q72 45 160 72.5t186 27.5q115 0 212 -44t148 -138q51 92 148.5 137t214.5 45q246 0 362 -180q96 -150 97 -410h-740q0 -145 97.5 -246.5 t244.5 -101.5q76 0 153 31t136 78v-195q-68 -31 -147.5 -50.5t-151.5 -19.5q-154 0 -266 52q-137 63 -184 192q-33 -119 -150 -184q-104 -59 -242 -60q-158 0 -274 86q-129 94 -129 248zM289 303q0 -82 60.5 -127t144.5 -45q135 0 223 106.5t88 258.5q-41 0 -90 2t-94 4 q-125 0 -207 -33q-125 -49 -125 -166zM997 623h535q0 113 -68 196q-76 94 -188 94q-125 0 -202 -82.5t-77 -207.5z" />
<glyph unicode="&#xe7;" horiz-adv-x="909" d="M78 522q0 242 146.5 394.5t385.5 152.5q57 0 125 -12.5t109 -28.5l-17 -160q-109 45 -209 45q-154 0 -244.5 -116.5t-90.5 -274.5q0 -160 79 -266q94 -125 269 -125q51 0 106.5 15.5t100.5 43.5l14 -172q-37 -16 -98.5 -29.5t-143.5 -13.5h-8l-76 -98l4 -4q27 10 62 10 q72 0 121 -41t49 -108q0 -94 -88 -146q-74 -43 -180 -43q-94 0 -172 43l36 70q37 -14 48 -18q37 -12 86 -13q47 0 75 19q39 25 39 75q0 37 -27.5 58.5t-66.5 21.5q-27 0 -42 -3t-42 -13l-35 39l121 162q-193 31 -314.5 183.5t-121.5 352.5z" />
<glyph unicode="&#xe8;" d="M94 541q0 236 134 382t356 146q246 0 360 -168q100 -147 100 -422h-745q0 -152 100.5 -250t243.5 -98q88 0 183.5 34t138.5 71v-193q-98 -35 -127 -43q-92 -25 -203 -25q-272 0 -406.5 149.5t-134.5 416.5zM299 623h541q0 125 -70 207.5t-190 82.5q-129 0 -205 -94 q-64 -77 -76 -196zM299 1485h224l182 -295h-137z" />
<glyph unicode="&#xe9;" d="M94 541q0 236 134 382t356 146q246 0 360 -168q100 -147 100 -422h-745q0 -152 100.5 -250t243.5 -98q88 0 183.5 34t138.5 71v-193q-98 -35 -127 -43q-92 -25 -203 -25q-272 0 -406.5 149.5t-134.5 416.5zM299 623h541q0 125 -70 207.5t-190 82.5q-129 0 -205 -94 q-64 -77 -76 -196zM435 1190l182 295h223l-268 -295h-137z" />
<glyph unicode="&#xea;" d="M94 541q0 236 134 382t356 146q246 0 360 -168q100 -147 100 -422h-745q0 -152 100.5 -250t243.5 -98q88 0 183.5 34t138.5 71v-193q-98 -35 -127 -43q-92 -25 -203 -25q-272 0 -406.5 149.5t-134.5 416.5zM273 1190l202 295h187l205 -295h-164l-135 201l-133 -201h-162z M299 623h541q0 125 -70 207.5t-190 82.5q-129 0 -205 -94q-64 -77 -76 -196z" />
<glyph unicode="&#xeb;" d="M94 541q0 236 134 382t356 146q246 0 360 -168q100 -147 100 -422h-745q0 -152 100.5 -250t243.5 -98q88 0 183.5 34t138.5 71v-193q-98 -35 -127 -43q-92 -25 -203 -25q-272 0 -406.5 149.5t-134.5 416.5zM299 623h541q0 125 -70 207.5t-190 82.5q-129 0 -205 -94 q-64 -77 -76 -196zM305 1204v205h193v-205h-193zM641 1204v205h193v-205h-193z" />
<glyph unicode="&#xec;" horiz-adv-x="569" d="M14 1485h224l182 -295h-137zM188 0v1044h193v-1044h-193z" />
<glyph unicode="&#xed;" horiz-adv-x="569" d="M150 1190l182 295h223l-268 -295h-137zM188 0v1044h193v-1044h-193z" />
<glyph unicode="&#xee;" horiz-adv-x="569" d="M-12 1190l202 295h187l205 -295h-164l-135 201l-133 -201h-162zM188 0v1044h193v-1044h-193z" />
<glyph unicode="&#xef;" horiz-adv-x="569" d="M20 1204v205h193v-205h-193zM188 0v1044h193v-1044h-193zM356 1204v205h193v-205h-193z" />
<glyph unicode="&#xf0;" horiz-adv-x="1251" d="M94 522q0 242 146.5 394.5t386.5 152.5q55 0 95 -11t77 -34q-47 68 -99.5 120t-119.5 101l-265 -141l-94 108l225 121q-57 35 -124.5 66t-131.5 53l148 109q78 -29 145.5 -61t134.5 -75l250 136l95 -109l-213 -115q182 -139 288 -336q119 -219 119 -479 q0 -229 -149.5 -388t-380.5 -159q-233 0 -383 158t-150 389zM299 522q0 -158 78 -266q88 -125 250 -125q158 0 247 125q78 109 78 266q0 158 -86 271q-92 121 -239 120q-150 0 -239 -115.5t-89 -275.5z" />
<glyph unicode="&#xf1;" horiz-adv-x="1251" d="M164 0v1044h186v-165q45 88 140.5 139t205.5 51q199 0 295 -115.5t96 -332.5v-621h-192v541q0 193 -49 282.5t-172 89.5q-158 0 -238 -116.5t-80 -313.5v-483h-192zM279 1200q12 92 47 148q51 82 145 82q49 0 123 -29q168 -66 192 -66q43 0 65.5 27t29.5 68h94 q-12 -92 -47 -148q-51 -82 -146 -82q-49 0 -123 29q-168 66 -192 65q-43 0 -65.5 -26.5t-28.5 -67.5h-94z" />
<glyph unicode="&#xf2;" horiz-adv-x="1251" d="M94 522q0 242 146.5 394.5t386.5 152.5q238 0 384 -152.5t146 -394.5q0 -229 -149.5 -388t-380.5 -159q-233 0 -383 158t-150 389zM299 522q0 -158 78 -266q88 -125 250 -125q158 0 247 125q78 109 78 266q0 158 -86 271q-92 121 -239 120q-150 0 -239 -115.5t-89 -275.5 zM356 1485h224l182 -295h-137z" />
<glyph unicode="&#xf3;" horiz-adv-x="1251" d="M94 522q0 242 146.5 394.5t386.5 152.5q238 0 384 -152.5t146 -394.5q0 -229 -149.5 -388t-380.5 -159q-233 0 -383 158t-150 389zM299 522q0 -158 78 -266q88 -125 250 -125q158 0 247 125q78 109 78 266q0 158 -86 271q-92 121 -239 120q-150 0 -239 -115.5t-89 -275.5 zM492 1190l182 295h223l-268 -295h-137z" />
<glyph unicode="&#xf4;" horiz-adv-x="1251" d="M94 522q0 242 146.5 394.5t386.5 152.5q238 0 384 -152.5t146 -394.5q0 -229 -149.5 -388t-380.5 -159q-233 0 -383 158t-150 389zM299 522q0 -158 78 -266q88 -125 250 -125q158 0 247 125q78 109 78 266q0 158 -86 271q-92 121 -239 120q-150 0 -239 -115.5t-89 -275.5 zM330 1190l202 295h187l205 -295h-164l-135 201l-133 -201h-162z" />
<glyph unicode="&#xf5;" horiz-adv-x="1251" d="M94 522q0 242 146.5 394.5t386.5 152.5q238 0 384 -152.5t146 -394.5q0 -229 -149.5 -388t-380.5 -159q-233 0 -383 158t-150 389zM279 1200q12 92 47 148q51 82 145 82q49 0 123 -29q168 -66 192 -66q43 0 65.5 27t29.5 68h94q-12 -92 -47 -148q-51 -82 -146 -82 q-49 0 -123 29q-168 66 -192 65q-43 0 -65.5 -26.5t-28.5 -67.5h-94zM299 522q0 -158 78 -266q88 -125 250 -125q158 0 247 125q78 109 78 266q0 158 -86 271q-92 121 -239 120q-150 0 -239 -115.5t-89 -275.5z" />
<glyph unicode="&#xf6;" horiz-adv-x="1251" d="M94 522q0 242 146.5 394.5t386.5 152.5q238 0 384 -152.5t146 -394.5q0 -229 -149.5 -388t-380.5 -159q-233 0 -383 158t-150 389zM299 522q0 -158 78 -266q88 -125 250 -125q158 0 247 125q78 109 78 266q0 158 -86 271q-92 121 -239 120q-150 0 -239 -115.5t-89 -275.5 zM362 1204v205h193v-205h-193zM698 1204v205h193v-205h-193z" />
<glyph unicode="&#xf7;" horiz-adv-x="1228" d="M96 428v180h1037v-180h-1037zM459 94q0 66 45 111t112 45q63 0 109.5 -46t46.5 -110q0 -59 -47 -108t-107 -49q-66 0 -112.5 47t-46.5 110zM459 942q0 66 46 112t111 46q61 0 108.5 -47t47.5 -111q0 -57 -47 -106.5t-107 -49.5q-66 0 -112.5 45t-46.5 111z" />
<glyph unicode="&#xf8;" horiz-adv-x="1251" d="M94 522q0 242 146.5 394.5t386.5 152.5q184 0 313 -94l109 133l61 -51l-109 -133q156 -152 156 -402q0 -229 -149.5 -388t-380.5 -159q-94 0 -173 27t-145 76l-116 -141l-62 51l117 145q-154 158 -154 389zM299 522q0 -72 15.5 -131.5t52.5 -114.5l458 560q-41 39 -89 58 t-109 19q-150 0 -239 -115.5t-89 -275.5zM418 211q37 -37 91 -58.5t118 -21.5q158 0 247 125q78 109 78 266q1 143 -73 252z" />
<glyph unicode="&#xf9;" horiz-adv-x="1251" d="M164 424v620h192v-540q0 -193 49.5 -283t172.5 -90q158 0 237.5 117t79.5 313v483h192v-1044h-186v166q-45 -88 -140 -139.5t-206 -51.5q-199 0 -295 116t-96 333zM356 1485h224l182 -295h-137z" />
<glyph unicode="&#xfa;" horiz-adv-x="1251" d="M164 424v620h192v-540q0 -193 49.5 -283t172.5 -90q158 0 237.5 117t79.5 313v483h192v-1044h-186v166q-45 -88 -140 -139.5t-206 -51.5q-199 0 -295 116t-96 333zM492 1190l182 295h223l-268 -295h-137z" />
<glyph unicode="&#xfb;" horiz-adv-x="1251" d="M164 424v620h192v-540q0 -193 49.5 -283t172.5 -90q158 0 237.5 117t79.5 313v483h192v-1044h-186v166q-45 -88 -140 -139.5t-206 -51.5q-199 0 -295 116t-96 333zM330 1190l202 295h187l205 -295h-164l-135 201l-133 -201h-162z" />
<glyph unicode="&#xfc;" horiz-adv-x="1251" d="M164 424v620h192v-540q0 -193 49.5 -283t172.5 -90q158 0 237.5 117t79.5 313v483h192v-1044h-186v166q-45 -88 -140 -139.5t-206 -51.5q-199 0 -295 116t-96 333zM362 1204v205h193v-205h-193zM698 1204v205h193v-205h-193z" />
<glyph unicode="&#xfd;" horiz-adv-x="1024" d="M14 1044h211l281 -864l291 864h194l-385 -1067q-57 -164 -90 -223q-111 -209 -311 -209q-37 0 -52.5 2.5t-78.5 12.5l12 157q4 -2 34 -9t56 -7q84 0 148 76q82 98 82 182q0 16 -12.5 48t-24.5 63zM377 1190l182 295h223l-268 -295h-137z" />
<glyph unicode="&#xfe;" horiz-adv-x="1251" d="M164 -430v1966h192v-635q53 80 129 121q88 47 222 47q217 0 337 -158q113 -145 113 -370q0 -238 -104 -389q-121 -176 -344 -177q-133 0 -216 44t-133 124l-4 -573h-192zM356 520q0 -150 72 -260q84 -129 236 -129q141 0 221 135q67 115 67 260q0 162 -63 265 q-76 123 -223 122q-150 0 -234 -122q-76 -111 -76 -271z" />
<glyph unicode="&#xff;" horiz-adv-x="1024" d="M14 1044h211l281 -864l291 864h194l-385 -1067q-57 -164 -90 -223q-111 -209 -311 -209q-37 0 -52.5 2.5t-78.5 12.5l12 157q4 -2 34 -9t56 -7q84 0 148 76q82 98 82 182q0 16 -12.5 48t-24.5 63zM247 1204v205h193v-205h-193zM583 1204v205h193v-205h-193z" />
<glyph unicode="&#x152;" horiz-adv-x="1933" d="M109 733q0 322 218 515.5t570 193.5q76 0 140.5 -4t158.5 -8h596v-181h-578v-418h537v-180h-537v-471h592v-180h-594q-53 0 -159.5 -6t-159.5 -6q-350 0 -563 194q-221 203 -221 551zM326 733q0 -266 153.5 -415.5t407.5 -149.5q37 0 64.5 2t58.5 10v1069q-33 4 -65 8.5 t-60 4.5q-260 0 -409.5 -137.5t-149.5 -391.5z" />
<glyph unicode="&#x153;" horiz-adv-x="1933" d="M84 522q0 223 137 379q147 168 381 168q145 0 253 -51t163 -154q47 100 145.5 152.5t227.5 52.5q246 0 362 -180q96 -150 96 -410h-739q0 -145 97.5 -246.5t244.5 -101.5q76 0 153 31t136 78v-195q-68 -31 -148 -50.5t-151 -19.5q-156 0 -266.5 55.5t-163.5 170.5 q-53 -115 -176 -174q-106 -51 -234 -52q-236 0 -377 154t-141 393zM289 522q0 -168 71 -272q82 -119 244 -119q143 0 234 125q80 113 80 266q0 150 -74 260q-88 131 -240 131t-239 -131q-76 -113 -76 -260zM1110 623h535q0 113 -68 196q-76 94 -188 94q-125 0 -202 -82.5 t-77 -207.5z" />
<glyph unicode="&#x178;" horiz-adv-x="1366" d="M23 1430h239l426 -642l416 642h239l-557 -832v-598h-204v598zM419 1548v205h193v-205h-193zM755 1548v205h193v-205h-193z" />
<glyph unicode="&#x2c6;" horiz-adv-x="569" d="M-12 1190l202 295h187l205 -295h-164l-135 201l-133 -201h-162z" />
<glyph unicode="&#x2dc;" horiz-adv-x="569" d="M-63 1200q12 92 47 148q51 82 145 82q49 0 123 -29q168 -66 192 -66q43 0 65.5 27t29.5 68h94q-12 -92 -47 -148q-51 -82 -146 -82q-49 0 -123 29q-168 66 -192 65q-43 0 -65.5 -26.5t-28.5 -67.5h-94z" />
<glyph unicode="&#x2000;" horiz-adv-x="957" />
<glyph unicode="&#x2001;" horiz-adv-x="1915" />
<glyph unicode="&#x2002;" horiz-adv-x="957" />
<glyph unicode="&#x2003;" horiz-adv-x="1915" />
<glyph unicode="&#x2004;" horiz-adv-x="638" />
<glyph unicode="&#x2005;" horiz-adv-x="478" />
<glyph unicode="&#x2006;" horiz-adv-x="319" />
<glyph unicode="&#x2007;" horiz-adv-x="319" />
<glyph unicode="&#x2008;" horiz-adv-x="239" />
<glyph unicode="&#x2009;" horiz-adv-x="383" />
<glyph unicode="&#x200a;" horiz-adv-x="106" />
<glyph unicode="&#x2010;" horiz-adv-x="681" d="M78 473v156h526v-156h-526z" />
<glyph unicode="&#x2011;" horiz-adv-x="681" d="M78 473v156h526v-156h-526z" />
<glyph unicode="&#x2012;" horiz-adv-x="681" d="M78 473v156h526v-156h-526z" />
<glyph unicode="&#x2013;" horiz-adv-x="1024" d="M0 479v144h1024v-144h-1024z" />
<glyph unicode="&#x2014;" horiz-adv-x="2048" d="M0 479v144h2048v-144h-2048z" />
<glyph unicode="&#x2018;" horiz-adv-x="569" d="M106 928l175 502h182l-129 -502h-228z" />
<glyph unicode="&#x2019;" horiz-adv-x="569" d="M106 928l127 502h230l-180 -502h-177z" />
<glyph unicode="&#x201a;" horiz-adv-x="569" d="M106 -272l130 501h227l-174 -501h-183z" />
<glyph unicode="&#x201c;" d="M197 928l176 502h180l-127 -502h-229zM586 928l172 502h184l-131 -502h-225z" />
<glyph unicode="&#x201d;" d="M197 928l129 502h227l-174 -502h-182zM586 928l129 502h227l-174 -502h-182z" />
<glyph unicode="&#x201e;" d="M197 -272l129 501h227l-174 -501h-182zM586 -272l129 501h227l-174 -501h-182z" />
<glyph unicode="&#x2022;" horiz-adv-x="1024" d="M156 715q0 150 103 253t253 103t254 -102.5t104 -253.5q0 -150 -104 -254.5t-254 -104.5t-253 103.5t-103 255.5z" />
<glyph unicode="&#x2026;" horiz-adv-x="2048" d="M227 0v229h230v-229h-230zM909 0v229h230v-229h-230zM1591 0v229h230v-229h-230z" />
<glyph unicode="&#x202f;" horiz-adv-x="383" />
<glyph unicode="&#x2039;" horiz-adv-x="569" d="M41 551l293 414h180l-266 -414l266 -414h-180z" />
<glyph unicode="&#x203a;" horiz-adv-x="569" d="M55 137l267 414l-267 414h181l292 -414l-292 -414h-181z" />
<glyph unicode="&#x205f;" horiz-adv-x="478" />
<glyph unicode="&#x2122;" horiz-adv-x="2027" d="M111 1286v144h680v-144h-263v-708h-155v708h-262zM991 578v852h242l223 -576l219 576h242v-852h-156v651l-243 -651h-127l-240 651l-4 -651h-156z" />
<glyph unicode="&#xe000;" horiz-adv-x="1044" d="M0 0v1044h1044v-1044h-1044z" />
</font>
</defs>
</svg>
